<svg width="2338" height="285" viewBox="0 0 2338 285" fill="none" xmlns="http://www.w3.org/2000/svg">
<path d="M0 227.733V221.333L9.06512 220C16.3527 218.933 21.0631 217.067 23.196 214.4C25.329 211.555 26.3955 207.112 26.3955 201.067V54.1333C26.3955 47.7333 25.329 43.2888 23.196 40.8C21.2409 38.1333 16.7083 36.3555 9.59836 35.4667L0 34.1333V27.7333H88.7849V34.1333L78.12 35.2C68.3439 36.0888 61.9449 37.9555 58.9233 40.8C55.9016 43.4667 54.3907 47.9112 54.3907 54.1333V199.467C54.3907 206.933 55.635 212.267 58.1234 215.467C60.7896 218.488 65.6776 220 72.7876 220H91.9843C100.161 220 107.182 215.2 113.047 205.6C119.091 196 126.023 179.555 133.844 156.267H142.909L123.179 227.733H0ZM167.993 227.733V221.6L183.99 220.267C195.898 219.2 203.63 217.422 207.186 214.933C210.741 212.267 212.519 208.088 212.519 202.4V128.267C212.519 121.689 211.629 117.422 209.853 115.467C208.253 113.333 204.075 112.178 197.321 112L166.393 111.733V104.267L235.715 98.4L238.381 100.8V203.2C238.381 208.888 240.157 212.978 243.713 215.467C247.268 217.778 254.822 219.378 266.376 220.267L282.907 221.6V227.733H167.993ZM211.986 61.6L209.319 59.4667V33.0667L211.986 30.6667H235.448L238.114 33.0667V59.4667L235.448 61.6H211.986ZM304.523 227.733V222.133L313.588 220.8C319.987 219.912 324.165 218.222 326.119 215.733C328.074 213.067 329.052 209.067 329.052 203.733V45.8667C329.052 40.1778 328.074 36.4445 326.119 34.6667C324.341 32.8888 320.875 32.0888 315.721 32.2667L301.057 33.3333V26.9333L351.182 17.6L354.381 19.7333V148H358.647L394.908 120.533C399.352 116.978 401.128 114.133 400.24 112C399.529 109.867 396.507 108.622 391.175 108.267L380.777 107.467L381.043 100.8H442.1V107.467L438.634 108C432.413 109.067 427.702 110.222 424.503 111.467C421.303 112.711 416.682 115.467 410.638 119.733L379.444 142.133L447.965 225.333L447.165 227.733H426.636L359.447 157.867L354.381 160.533V204.8C354.381 209.955 355.714 213.688 358.381 216C361.047 218.312 366.468 219.912 374.645 220.8L385.309 222.133V227.733H304.523ZM532.773 231.2C518.375 231.2 504.866 223.912 492.244 209.333C479.803 194.578 473.583 179.378 473.583 163.733C473.583 147.911 479.982 132.8 492.779 118.4C505.577 104 519.352 96.8 534.106 96.8C546.904 96.8 558.723 102.222 569.566 113.067C580.586 123.911 587.252 136.089 589.563 149.6V154.933H505.311V157.6V171.2C505.311 187.555 507.71 200.267 512.509 209.333C517.485 218.222 524.507 222.667 533.572 222.667C537.838 222.667 541.659 221.955 545.037 220.533C548.592 219.112 552.236 216.355 555.969 212.267C559.701 208 562.456 204.533 564.234 201.867C566.189 199.2 569.476 194.312 574.099 187.2C575.699 184.888 576.853 183.112 577.565 181.867H587.43C582.986 188.8 580.141 193.245 578.898 195.2C577.832 196.978 575.432 200.622 571.699 206.133C567.967 211.467 565.034 215.022 562.901 216.8C560.944 218.578 558.19 220.978 554.636 224C551.079 226.845 547.525 228.712 543.971 229.6C540.593 230.667 536.86 231.2 532.773 231.2ZM505.577 147.467H559.435C558.901 118.489 550.458 104 534.106 104C516.685 104 507.177 118.489 505.577 147.467ZM628.51 227.733V221.333L647.44 219.467C657.926 218.578 664.858 216.8 668.236 214.133C671.791 211.288 673.569 206.045 673.569 198.4V46.9333C673.569 41.6 672.502 38.0445 670.369 36.2667C668.414 34.3112 664.415 33.3333 658.371 33.3333L629.043 34.1333V27.7333L696.765 17.6L699.431 19.7333V198.4C699.431 206.045 701.119 211.288 704.497 214.133C708.051 216.8 715.073 218.578 725.56 219.467L744.49 221.333V227.733H628.51ZM786.638 227.733V221.6L802.635 220.267C814.543 219.2 822.275 217.422 825.831 214.933C829.385 212.267 831.163 208.088 831.163 202.4V128.267C831.163 121.689 830.274 117.422 828.497 115.467C826.897 113.333 822.72 112.178 815.966 112L785.038 111.733V104.267L854.359 98.4L857.026 100.8V203.2C857.026 208.888 858.802 212.978 862.358 215.467C865.913 217.778 873.466 219.378 885.021 220.267L901.551 221.6V227.733H786.638ZM830.63 61.6L827.964 59.4667V33.0667L830.63 30.6667H854.093L856.759 33.0667V59.4667L854.093 61.6H830.63ZM1034.35 209.333C1021.2 223.912 1007.86 231.2 994.356 231.2C980.846 231.2 967.515 223.912 954.362 209.333C941.21 194.578 934.632 179.467 934.632 164C934.632 148.533 941.21 133.511 954.362 118.933C967.515 104.178 980.846 96.8 994.356 96.8C1007.86 96.8 1021.2 104.178 1034.35 118.933C1047.5 133.511 1054.08 148.533 1054.08 164C1054.08 179.467 1047.5 194.578 1034.35 209.333ZM966.36 174.667C966.36 207.555 975.692 224 994.356 224C1013.02 224 1022.35 207.555 1022.35 174.667V152.533C1022.35 120.178 1013.02 104 994.356 104C975.692 104 966.36 120.178 966.36 152.533V174.667ZM1159.95 227.733V222.133L1166.08 220.8C1170.35 219.733 1173.1 218.045 1174.35 215.733C1175.59 213.245 1176.21 209.245 1176.21 203.733V143.733C1176.21 121.689 1169.46 110.667 1155.95 110.667C1149.37 110.667 1143.06 113.867 1137.02 120.267C1130.26 127.022 1126.89 134.133 1126.89 141.6V204.8C1126.89 210.133 1127.42 213.955 1128.49 216.267C1129.73 218.4 1132.49 219.912 1136.75 220.8L1143.15 222.133V227.733H1082.63V221.867L1089.29 220.533C1094.27 219.467 1097.47 217.688 1098.89 215.2C1100.31 212.712 1101.03 208.8 1101.03 203.467V126.667C1101.03 120.8 1100.23 117.067 1098.63 115.467C1097.03 113.867 1093.56 112.978 1088.23 112.8L1077.56 112.533V105.867L1123.16 98.4L1125.29 100.533V118.667H1129.02C1136.49 110.845 1142.8 105.245 1147.95 101.867C1153.11 98.4888 1158.88 96.8 1165.28 96.8C1176.48 96.8 1185.37 101.333 1191.94 110.4C1198.7 119.289 1202.08 131.289 1202.08 146.4V204.267C1202.08 209.422 1202.79 213.245 1204.21 215.733C1205.81 218.045 1209.01 219.645 1213.81 220.533L1220.74 221.867V227.733H1159.95ZM1302.61 230.933C1285.01 230.933 1271.77 223.733 1262.88 209.333L1256.75 229.867H1249.29L1242.89 154.667H1251.15C1256.31 175.645 1262.71 192.178 1270.35 204.267C1278.17 216.178 1288.39 222.133 1301.01 222.133C1311.85 222.133 1320.21 218.045 1326.07 209.867C1332.12 201.512 1335.14 191.733 1335.14 180.533C1335.14 171.467 1332.65 162.133 1327.67 152.533C1322.87 142.756 1317.54 134.4 1311.68 127.467C1305.81 120.356 1300.39 112.267 1295.41 103.2C1290.61 93.9555 1288.21 85.2445 1288.21 77.0667C1288.21 62.1333 1293.37 49.5112 1303.68 39.2C1314.16 28.8888 1326.61 23.7333 1341 23.7333C1356.65 23.7333 1368.73 29.4222 1377.27 40.8L1382.86 25.0667H1389L1395.4 88.8H1387.4C1379.58 51.1112 1364.38 32.2667 1341.8 32.2667C1332.56 32.2667 1325.45 35.4667 1320.48 41.8667C1315.68 48.0888 1313.28 55.5555 1313.28 64.2667C1313.28 72.6222 1315.68 81.3334 1320.48 90.4C1325.45 99.4667 1330.87 107.467 1336.74 114.4C1342.78 121.333 1348.2 129.511 1353 138.933C1357.98 148.356 1360.47 157.422 1360.47 166.133C1360.47 183.2 1355.05 198.312 1344.2 211.467C1333.54 224.445 1319.68 230.933 1302.61 230.933ZM1432.21 231.2C1422.26 231.2 1414.35 226.045 1408.48 215.733C1402.62 205.422 1399.68 194.755 1399.68 183.733C1399.68 169.867 1404.84 156.089 1415.15 142.4C1425.63 128.533 1437.45 117.689 1450.61 109.867C1463.76 102.045 1475.14 98.1333 1484.74 98.1333C1494.51 98.1333 1502.33 103.289 1508.2 113.6C1514.06 123.733 1517 134.4 1517 145.6C1517 159.467 1511.84 173.245 1501.53 186.933C1491.22 200.622 1479.49 211.467 1466.34 219.467C1453.18 227.288 1441.81 231.2 1432.21 231.2ZM1432.74 223.733C1446.79 223.733 1461.54 208.533 1477 178.133L1486.07 159.733C1493.71 144.622 1497.53 132.089 1497.53 122.133C1497.53 111.111 1493 105.6 1483.94 105.6C1469.89 105.6 1455.14 120.889 1439.68 151.467L1430.61 169.6C1422.97 184.888 1419.15 197.512 1419.15 207.467C1419.15 218.312 1423.68 223.733 1432.74 223.733ZM1546.08 284.267C1532.21 284.267 1521.55 281.955 1514.08 277.333C1506.44 272.712 1502.62 267.2 1502.62 260.8C1502.62 254.933 1506.17 250.133 1513.28 246.4C1520.22 242.667 1531.24 240.8 1546.34 240.8H1605.53C1608.2 236.533 1610.96 231.645 1613.8 226.133C1616.82 220.445 1620.29 213.778 1624.2 206.133C1628.29 198.488 1631.49 192.445 1633.8 188H1631.13C1612.47 214.133 1597.09 227.2 1585.01 227.2C1577.18 227.2 1570.79 222.488 1565.81 213.067C1561.01 203.645 1558.61 193.155 1558.61 181.6C1558.61 174.667 1559.68 168 1561.81 161.6C1566.96 145.067 1577.81 130.4 1594.34 117.6C1611.05 104.622 1625.26 98.1333 1637 98.1333C1644.28 98.1333 1649.53 101.422 1652.73 108C1655.93 114.4 1656.82 123.289 1655.39 134.667H1657.8L1688.2 100.267H1696.99C1683.66 126.045 1672.2 148.8 1662.6 168.533C1659.57 174.933 1655.48 183.555 1650.33 194.4C1645.35 205.067 1641.35 213.333 1638.33 219.2C1635.48 225.067 1632.38 230.845 1629 236.533L1626.33 240.8H1647.39L1644.46 246.933H1622.33C1613.98 259.022 1604.11 268.267 1592.74 274.667C1581.54 281.067 1566.7 284.267 1548.21 284.267H1546.08ZM1587.14 218.667C1594.07 218.667 1602.16 213.867 1611.4 204.267C1620.82 194.488 1629 182.488 1635.93 168.267L1640.46 159.2C1643.66 152.8 1646.06 146.756 1647.66 141.067C1649.26 135.378 1650.06 130.489 1650.06 126.4C1650.06 122.133 1649.44 118.578 1648.19 115.733C1647.13 112.711 1645.53 110.489 1643.4 109.067C1641.44 107.467 1639.13 106.667 1636.46 106.667C1630.42 106.667 1623.93 110.222 1617 117.333C1610.25 124.445 1603.76 134.311 1597.54 146.933L1589.27 163.467C1580.56 180.888 1576.21 194.4 1576.21 204C1576.21 213.778 1579.85 218.667 1587.14 218.667ZM1523.95 263.2C1523.95 267.645 1526.08 271.112 1530.35 273.6C1534.61 276.267 1540.57 277.6 1548.21 277.6H1549.81C1560.83 277.6 1570.34 275.2 1578.34 270.4C1586.34 265.778 1594.07 257.955 1601.54 246.933H1554.08C1544.48 246.933 1537.1 248.355 1531.95 251.2C1526.61 254.045 1523.95 258.045 1523.95 263.2ZM1728.47 230.933C1720.64 230.933 1714.34 226.222 1709.54 216.8C1704.91 207.378 1702.61 196.622 1702.61 184.533C1702.61 176.355 1703.68 168.712 1705.81 161.6C1710.78 145.6 1721.81 131.022 1738.87 117.867C1756.1 104.711 1770.5 98.1333 1782.06 98.1333C1789.35 98.1333 1794.59 101.511 1797.79 108.267C1801.16 115.022 1801.96 124.178 1800.19 135.733H1802.59L1832.72 100.267H1842.05L1802.33 179.467C1796.63 190.845 1793.08 200.088 1791.66 207.2C1790.41 214.133 1792.09 218.045 1796.73 218.933C1804.19 218.933 1813.69 207.733 1825.26 185.333H1833.79C1825.26 201.867 1817.52 213.6 1810.59 220.533C1803.83 227.288 1796.99 230.667 1790.06 230.667C1781.53 230.667 1776.2 226.488 1774.06 218.133C1771.93 209.6 1773.35 200.178 1778.33 189.867H1775.66C1757.35 217.245 1741.62 230.933 1728.47 230.933ZM1731.67 221.333C1738.24 221.333 1746.24 216.355 1755.67 206.4C1765.08 196.445 1773.26 184.178 1780.2 169.6L1784.73 160.267C1790.06 149.245 1793.16 139.556 1794.06 131.2C1795.13 122.667 1794.41 116.445 1791.93 112.533C1789.61 108.622 1786.15 106.667 1781.53 106.667C1769.08 106.667 1755.83 120.445 1741.8 148L1733.27 164.533C1724.56 181.067 1720.21 194.667 1720.21 205.333C1720.21 210.133 1721.17 214.045 1723.14 217.067C1725.27 219.912 1728.11 221.333 1731.67 221.333ZM1937.79 230.4C1927.12 230.4 1921.26 224.978 1920.19 214.133C1919.84 205.778 1924.11 193.955 1932.99 178.667L1953.78 143.2C1960.18 131.822 1963.38 123.733 1963.38 118.933C1963.38 113.422 1960.63 110.667 1955.12 110.667C1946.59 110.667 1936.45 117.6 1924.72 131.467C1913.17 145.333 1901.71 163.912 1890.33 187.2L1870.6 227.733H1844.2L1895.39 124C1898.24 118.489 1899.39 114.578 1898.86 112.267C1898.33 109.956 1895.74 108.8 1891.13 108.8H1875.93L1879.13 102.133H1902.86L1923.66 101.067L1925.26 103.733C1918.67 115.467 1910.94 130.133 1902.06 147.733H1904.99C1917.79 129.6 1928.72 116.8 1937.79 109.333C1947.04 101.867 1955.73 98.1333 1963.92 98.1333C1970.66 98.1333 1975.91 100.089 1979.65 104C1983.56 107.911 1985.51 113.067 1985.51 119.467C1985.51 128.711 1981.06 140.978 1972.18 156.267L1954.32 186.4C1946.32 200.088 1942.4 208.978 1942.59 213.067C1942.59 216.622 1944.27 218.4 1947.65 218.4C1956 218.4 1966.32 207.467 1978.58 185.6H1987.11C1970.4 215.467 1953.97 230.4 1937.79 230.4ZM2010.06 284.267C1996.19 284.267 1985.53 281.955 1978.06 277.333C1970.43 272.712 1966.6 267.2 1966.6 260.8C1966.6 254.933 1970.16 250.133 1977.26 246.4C1984.2 242.667 1995.23 240.8 2010.32 240.8H2069.51C2072.18 236.533 2074.95 231.645 2077.78 226.133C2080.81 220.445 2084.28 213.778 2088.18 206.133C2092.28 198.488 2095.48 192.445 2097.78 188H2095.11C2076.45 214.133 2061.08 227.2 2048.98 227.2C2041.17 227.2 2034.77 222.488 2029.79 213.067C2024.99 203.645 2022.59 193.155 2022.59 181.6C2022.59 174.667 2023.66 168 2025.79 161.6C2030.95 145.067 2041.79 130.4 2058.32 117.6C2075.03 104.622 2089.24 98.1333 2100.98 98.1333C2108.27 98.1333 2113.51 101.422 2116.71 108C2119.91 114.4 2120.81 123.289 2119.37 134.667H2121.77L2152.17 100.267H2160.97C2147.63 126.045 2136.17 148.8 2126.57 168.533C2123.55 174.933 2119.47 183.555 2114.31 194.4C2109.34 205.067 2105.34 213.333 2102.31 219.2C2099.48 225.067 2096.36 230.845 2092.98 236.533L2090.31 240.8H2111.37L2108.44 246.933H2086.31C2077.96 259.022 2068.1 268.267 2056.72 274.667C2045.52 281.067 2030.69 284.267 2012.19 284.267H2010.06ZM2051.12 218.667C2058.05 218.667 2066.15 213.867 2075.38 204.267C2084.81 194.488 2092.98 182.488 2099.91 168.267L2104.44 159.2C2107.64 152.8 2110.04 146.756 2111.64 141.067C2113.24 135.378 2114.04 130.489 2114.04 126.4C2114.04 122.133 2113.42 118.578 2112.17 115.733C2111.11 112.711 2109.51 110.489 2107.37 109.067C2105.42 107.467 2103.11 106.667 2100.44 106.667C2094.41 106.667 2087.91 110.222 2080.98 117.333C2074.23 124.445 2067.75 134.311 2061.52 146.933L2053.25 163.467C2044.55 180.888 2040.19 194.4 2040.19 204C2040.19 213.778 2043.84 218.667 2051.12 218.667ZM1987.93 263.2C1987.93 267.645 1990.06 271.112 1994.33 273.6C1998.59 276.267 2004.56 277.6 2012.19 277.6H2013.79C2024.82 277.6 2034.32 275.2 2042.32 270.4C2050.32 265.778 2058.05 257.955 2065.51 246.933H2018.06C2008.46 246.933 2001.09 248.355 1995.93 251.2C1990.59 254.045 1987.93 258.045 1987.93 263.2ZM2196.73 94.4V88.5333L2207.39 87.4667C2214.14 86.7555 2218.67 85.7778 2220.99 84.5333C2223.47 83.1112 2224.7 80.9778 2224.7 78.1333V21.8667C2224.7 16.3555 2221.95 15.0222 2216.46 17.8667L2195.39 29.6V21.6L2234.32 0H2243.12V78.1333C2243.12 81.1555 2244.18 83.2888 2246.32 84.5333C2248.45 85.7778 2252.88 86.7555 2259.65 87.4667L2269.51 88.5333V94.4H2196.73ZM2270.86 91.4667C2288.81 88.0888 2301.26 84.3555 2308.19 80.2667C2315.29 76.1778 2318.85 70.9334 2318.85 64.5334V61.6C2318.85 52.7112 2313.69 48.2667 2303.39 48.2667C2298.22 48.2667 2292.54 50.0445 2286.33 53.6V46.4L2323.92 16.2667V14.9333H2290.06C2285.96 14.9333 2282.94 15.8222 2280.99 17.6C2279.03 19.2 2276.73 22.4888 2274.06 27.4667H2268.73L2274.86 2.13335H2336.45V14.6667L2302.32 41.8667V43.7333C2307.66 42.8445 2310.94 42.4 2312.19 42.4C2319.12 42.4 2325.07 44.0888 2330.05 47.4667C2335.2 50.8445 2337.79 55.6445 2337.79 61.8667C2337.79 70.5778 2332.27 77.7778 2321.25 83.4667C2310.41 89.1555 2293.61 93.9555 2270.86 97.8667V91.4667Z" fill="#232325"/>
</svg>
