<svg width="2338" height="285" viewBox="0 0 2338 285" fill="none" xmlns="http://www.w3.org/2000/svg">
<path d="M0.131577 228.333V221.933L9.1967 220.6C16.4843 219.533 21.1947 217.666 23.3276 215C25.4606 212.155 26.5271 207.711 26.5271 201.666V54.733C26.5271 48.333 25.4606 43.8885 23.3276 41.3996C21.3725 38.733 16.8399 36.9551 9.72994 36.0663L0.131577 34.733V28.333H88.9165V34.733L78.2516 35.7996C68.4754 36.6885 62.0765 38.5551 59.0549 41.3996C56.0332 44.0663 54.5223 48.5108 54.5223 54.733V200.066C54.5223 207.533 55.7666 212.866 58.255 216.066C60.9212 219.088 65.8092 220.6 72.9192 220.6H92.1159C100.292 220.6 107.313 215.8 113.179 206.2C119.222 196.6 126.155 180.155 133.975 156.866H143.041L123.311 228.333H0.131577ZM168.125 228.333V222.2L184.122 220.866C196.03 219.8 203.762 218.021 207.318 215.533C210.872 212.866 212.65 208.688 212.65 203V128.866C212.65 122.288 211.761 118.022 209.984 116.066C208.384 113.933 204.207 112.777 197.453 112.6L166.525 112.333V104.866L235.846 98.9996L238.513 101.4V203.8C238.513 209.488 240.289 213.578 243.845 216.066C247.399 218.378 254.953 219.978 266.508 220.866L283.038 222.2V228.333H168.125ZM212.117 62.1996L209.451 60.0663V33.6663L212.117 31.2663H235.58L238.246 33.6663V60.0663L235.58 62.1996H212.117ZM304.655 228.333V222.733L313.72 221.4C320.119 220.511 324.296 218.821 326.251 216.333C328.206 213.666 329.184 209.666 329.184 204.333V46.4663C329.184 40.7775 328.206 37.0441 326.251 35.2663C324.473 33.4885 321.007 32.6885 315.853 32.8663L301.189 33.933V27.533L351.313 18.1996L354.513 20.333V148.6H358.779L395.039 121.133C399.484 117.577 401.26 114.733 400.372 112.6C399.66 110.466 396.639 109.222 391.307 108.866L380.908 108.066L381.175 101.4H442.231V108.066L438.765 108.6C432.545 109.666 427.834 110.822 424.634 112.066C421.435 113.311 416.814 116.066 410.77 120.333L379.575 142.733L448.097 225.933L447.297 228.333H426.767L359.579 158.466L354.513 161.133V205.4C354.513 210.555 355.846 214.288 358.512 216.6C361.178 218.911 366.599 220.511 374.776 221.4L385.441 222.733V228.333H304.655ZM532.904 231.8C518.507 231.8 504.997 224.511 492.376 209.933C479.935 195.178 473.714 179.978 473.714 164.333C473.714 148.511 480.113 133.4 492.911 119C505.709 104.6 519.483 97.3996 534.237 97.3996C547.035 97.3996 558.855 102.822 569.698 113.666C580.718 124.511 587.383 136.688 589.695 150.2V155.533H505.442V158.2V171.8C505.442 188.155 507.842 200.866 512.641 209.933C517.617 218.821 524.639 223.266 533.704 223.266C537.97 223.266 541.791 222.555 545.169 221.133C548.723 219.711 552.367 216.955 556.1 212.866C559.833 208.6 562.587 205.133 564.365 202.466C566.32 199.8 569.608 194.911 574.23 187.8C575.83 185.488 576.985 183.711 577.697 182.466H587.562C583.117 189.4 580.273 193.845 579.03 195.8C577.963 197.578 575.564 201.221 571.831 206.733C568.098 212.066 565.165 215.621 563.032 217.4C561.076 219.178 558.322 221.578 554.767 224.6C551.211 227.445 547.657 229.311 544.102 230.2C540.725 231.266 536.992 231.8 532.904 231.8ZM505.709 148.066H559.566C559.033 119.088 550.59 104.6 534.237 104.6C516.817 104.6 507.309 119.088 505.709 148.066ZM628.641 228.333V221.933L647.571 220.066C658.058 219.178 664.99 217.4 668.368 214.733C671.922 211.888 673.7 206.645 673.7 199V47.533C673.7 42.1996 672.634 38.6441 670.501 36.8663C668.546 34.9108 664.547 33.933 658.503 33.933L629.174 34.733V28.333L696.896 18.1996L699.562 20.333V199C699.562 206.645 701.25 211.888 704.628 214.733C708.183 217.4 715.205 219.178 725.691 220.066L744.621 221.933V228.333H628.641ZM786.769 228.333V222.2L802.767 220.866C814.674 219.8 822.406 218.021 825.963 215.533C829.517 212.866 831.295 208.688 831.295 203V128.866C831.295 122.288 830.405 118.022 828.629 116.066C827.029 113.933 822.851 112.777 816.098 112.6L785.17 112.333V104.866L854.491 98.9996L857.157 101.4V203.8C857.157 209.488 858.934 213.578 862.49 216.066C866.044 218.378 873.598 219.978 885.153 220.866L901.683 222.2V228.333H786.769ZM830.762 62.1996L828.096 60.0663V33.6663L830.762 31.2663H854.224L856.891 33.6663V60.0663L854.224 62.1996H830.762ZM1034.48 209.933C1021.33 224.511 1008 231.8 994.487 231.8C980.978 231.8 967.647 224.511 954.494 209.933C941.341 195.178 934.764 180.066 934.764 164.6C934.764 149.133 941.341 134.111 954.494 119.533C967.647 104.777 980.978 97.3996 994.487 97.3996C1008 97.3996 1021.33 104.777 1034.48 119.533C1047.63 134.111 1054.21 149.133 1054.21 164.6C1054.21 180.066 1047.63 195.178 1034.48 209.933ZM966.492 175.266C966.492 208.155 975.824 224.6 994.487 224.6C1013.15 224.6 1022.48 208.155 1022.48 175.266V153.133C1022.48 120.777 1013.15 104.6 994.487 104.6C975.824 104.6 966.492 120.777 966.492 153.133V175.266ZM1160.08 228.333V222.733L1166.21 221.4C1170.48 220.333 1173.23 218.645 1174.48 216.333C1175.72 213.845 1176.34 209.845 1176.34 204.333V144.333C1176.34 122.288 1169.59 111.266 1156.08 111.266C1149.5 111.266 1143.19 114.466 1137.15 120.866C1130.4 127.622 1127.02 134.733 1127.02 142.2V205.4C1127.02 210.733 1127.55 214.555 1128.62 216.866C1129.86 219 1132.62 220.511 1136.88 221.4L1143.28 222.733V228.333H1082.76V222.466L1089.42 221.133C1094.4 220.066 1097.6 218.288 1099.02 215.8C1100.45 213.311 1101.16 209.4 1101.16 204.066V127.266C1101.16 121.4 1100.36 117.666 1098.76 116.066C1097.16 114.466 1093.69 113.577 1088.36 113.4L1077.69 113.133V106.466L1123.29 98.9996L1125.42 101.133V119.266H1129.15C1136.62 111.444 1142.93 105.844 1148.08 102.466C1153.24 99.0885 1159.01 97.3996 1165.41 97.3996C1176.61 97.3996 1185.5 101.933 1192.08 111C1198.83 119.888 1202.21 131.888 1202.21 147V204.866C1202.21 210.021 1202.92 213.845 1204.34 216.333C1205.94 218.645 1209.14 220.245 1213.94 221.133L1220.87 222.466V228.333H1160.08ZM1302.74 231.533C1285.15 231.533 1271.9 224.333 1263.02 209.933L1256.88 230.466H1249.42L1243.02 155.266H1251.29C1256.44 176.245 1262.84 192.778 1270.48 204.866C1278.3 216.778 1288.52 222.733 1301.14 222.733C1311.99 222.733 1320.34 218.645 1326.21 210.466C1332.25 202.111 1335.27 192.333 1335.27 181.133C1335.27 172.066 1332.78 162.733 1327.81 153.133C1323.01 143.355 1317.67 135 1311.81 128.066C1305.94 120.955 1300.52 112.866 1295.54 103.8C1290.74 94.5551 1288.35 85.8441 1288.35 77.6663C1288.35 62.733 1293.5 50.1108 1303.81 39.7996C1314.3 29.4885 1326.74 24.333 1341.14 24.333C1356.78 24.333 1368.87 30.0218 1377.4 41.3996L1383 25.6663H1389.13L1395.53 89.3996H1387.53C1379.71 51.7108 1364.51 32.8663 1341.94 32.8663C1332.69 32.8663 1325.58 36.0663 1320.61 42.4663C1315.81 48.6885 1313.41 56.1551 1313.41 64.8663C1313.41 73.2218 1315.81 81.933 1320.61 90.9996C1325.58 100.066 1331 108.066 1336.87 115C1342.91 121.933 1348.34 130.111 1353.13 139.533C1358.11 148.955 1360.6 158.022 1360.6 166.733C1360.6 183.8 1355.18 198.911 1344.34 212.066C1333.67 225.045 1319.81 231.533 1302.74 231.533ZM1432.34 231.8C1422.39 231.8 1414.48 226.645 1408.61 216.333C1402.75 206.021 1399.81 195.355 1399.81 184.333C1399.81 170.466 1404.97 156.688 1415.28 143C1425.77 129.133 1437.59 118.288 1450.74 110.466C1463.89 102.644 1475.27 98.733 1484.87 98.733C1494.64 98.733 1502.46 103.888 1508.33 114.2C1514.2 124.333 1517.13 135 1517.13 146.2C1517.13 160.066 1511.97 173.845 1501.66 187.533C1491.35 201.221 1479.62 212.066 1466.47 220.066C1453.32 227.888 1441.94 231.8 1432.34 231.8ZM1432.88 224.333C1446.92 224.333 1461.67 209.133 1477.13 178.733L1486.2 160.333C1493.84 145.222 1497.66 132.688 1497.66 122.733C1497.66 111.711 1493.13 106.2 1484.07 106.2C1470.02 106.2 1455.27 121.488 1439.81 152.066L1430.74 170.2C1423.1 185.488 1419.28 198.111 1419.28 208.066C1419.28 218.911 1423.81 224.333 1432.88 224.333ZM1546.21 284.866C1532.35 284.866 1521.68 282.555 1514.22 277.933C1506.57 273.311 1502.75 267.8 1502.75 261.4C1502.75 255.533 1506.31 250.733 1513.42 247C1520.35 243.266 1531.37 241.4 1546.48 241.4H1605.67C1608.33 237.133 1611.09 232.245 1613.93 226.733C1616.95 221.045 1620.42 214.378 1624.33 206.733C1628.42 199.088 1631.62 193.045 1633.93 188.6H1631.26C1612.6 214.733 1597.22 227.8 1585.14 227.8C1577.32 227.8 1570.92 223.088 1565.94 213.666C1561.14 204.245 1558.74 193.755 1558.74 182.2C1558.74 175.266 1559.81 168.6 1561.94 162.2C1567.09 145.666 1577.94 131 1594.47 118.2C1611.18 105.222 1625.4 98.733 1637.13 98.733C1644.41 98.733 1649.66 102.022 1652.86 108.6C1656.07 115 1656.95 123.888 1655.52 135.266H1657.93L1688.33 100.866H1697.13C1683.79 126.644 1672.33 149.4 1662.73 169.133C1659.7 175.533 1655.62 184.155 1650.46 195C1645.48 205.666 1641.48 213.933 1638.46 219.8C1635.62 225.666 1632.51 231.445 1629.13 237.133L1626.46 241.4H1647.53L1644.59 247.533H1622.46C1614.11 259.621 1604.25 268.866 1592.87 275.266C1581.67 281.666 1566.83 284.866 1548.34 284.866H1546.21ZM1587.27 219.266C1594.2 219.266 1602.29 214.466 1611.53 204.866C1620.95 195.088 1629.13 183.088 1636.06 168.866L1640.59 159.8C1643.79 153.4 1646.19 147.355 1647.79 141.666C1649.39 135.977 1650.19 131.088 1650.19 127C1650.19 122.733 1649.57 119.177 1648.33 116.333C1647.26 113.311 1645.66 111.088 1643.53 109.666C1641.57 108.066 1639.26 107.266 1636.59 107.266C1630.55 107.266 1624.06 110.822 1617.13 117.933C1610.38 125.044 1603.89 134.911 1597.67 147.533L1589.4 164.066C1580.69 181.488 1576.34 195 1576.34 204.6C1576.34 214.378 1579.98 219.266 1587.27 219.266ZM1524.08 263.8C1524.08 268.245 1526.21 271.711 1530.48 274.2C1534.75 276.866 1540.7 278.2 1548.34 278.2H1549.94C1560.96 278.2 1570.47 275.8 1578.47 271C1586.47 266.378 1594.2 258.555 1601.67 247.533H1554.21C1544.61 247.533 1537.23 248.955 1532.08 251.8C1526.75 254.645 1524.08 258.645 1524.08 263.8ZM1728.6 231.533C1720.77 231.533 1714.47 226.821 1709.67 217.4C1705.04 207.978 1702.74 197.221 1702.74 185.133C1702.74 176.955 1703.81 169.311 1705.94 162.2C1710.91 146.2 1721.94 131.622 1739 118.466C1756.23 105.311 1770.63 98.733 1782.19 98.733C1789.48 98.733 1794.73 102.111 1797.93 108.866C1801.29 115.622 1802.09 124.777 1800.32 136.333H1802.72L1832.85 100.866H1842.18L1802.46 180.066C1796.76 191.445 1793.21 200.688 1791.79 207.8C1790.54 214.733 1792.23 218.645 1796.86 219.533C1804.32 219.533 1813.82 208.333 1825.39 185.933H1833.92C1825.39 202.466 1817.66 214.2 1810.72 221.133C1803.96 227.888 1797.13 231.266 1790.19 231.266C1781.66 231.266 1776.33 227.088 1774.2 218.733C1772.06 210.2 1773.48 200.778 1778.46 190.466H1775.8C1757.48 217.845 1741.75 231.533 1728.6 231.533ZM1731.8 221.933C1738.37 221.933 1746.37 216.955 1755.8 207C1765.21 197.045 1773.4 184.778 1780.33 170.2L1784.86 160.866C1790.19 149.844 1793.29 140.155 1794.19 131.8C1795.26 123.266 1794.54 117.044 1792.06 113.133C1789.74 109.222 1786.28 107.266 1781.66 107.266C1769.21 107.266 1755.97 121.044 1741.93 148.6L1733.4 165.133C1724.69 181.666 1720.34 195.266 1720.34 205.933C1720.34 210.733 1721.31 214.645 1723.27 217.666C1725.4 220.511 1728.24 221.933 1731.8 221.933ZM1937.92 231C1927.25 231 1921.39 225.578 1920.32 214.733C1919.97 206.378 1924.24 194.555 1933.12 179.266L1953.92 143.8C1960.31 132.422 1963.51 124.333 1963.51 119.533C1963.51 114.022 1960.76 111.266 1955.25 111.266C1946.72 111.266 1936.58 118.2 1924.85 132.066C1913.31 145.933 1901.84 164.511 1890.46 187.8L1870.73 228.333H1844.33L1895.53 124.6C1898.37 119.088 1899.52 115.177 1898.99 112.866C1898.46 110.555 1895.88 109.4 1891.26 109.4H1876.06L1879.26 102.733H1902.99L1923.79 101.666L1925.39 104.333C1918.8 116.066 1911.07 130.733 1902.19 148.333H1905.12C1917.92 130.2 1928.85 117.4 1937.92 109.933C1947.17 102.466 1955.87 98.733 1964.05 98.733C1970.8 98.733 1976.05 100.688 1979.78 104.6C1983.69 108.511 1985.64 113.666 1985.64 120.066C1985.64 129.311 1981.19 141.577 1972.31 156.866L1954.45 187C1946.45 200.688 1942.53 209.578 1942.72 213.666C1942.72 217.221 1944.4 219 1947.78 219C1956.13 219 1966.45 208.066 1978.71 186.2H1987.24C1970.53 216.066 1954.1 231 1937.92 231ZM2010.19 284.866C1996.32 284.866 1985.66 282.555 1978.19 277.933C1970.56 273.311 1966.73 267.8 1966.73 261.4C1966.73 255.533 1970.3 250.733 1977.39 247C1984.33 243.266 1995.36 241.4 2010.46 241.4H2069.65C2072.31 237.133 2075.08 232.245 2077.91 226.733C2080.94 221.045 2084.41 214.378 2088.31 206.733C2092.41 199.088 2095.61 193.045 2097.91 188.6H2095.24C2076.58 214.733 2061.21 227.8 2049.12 227.8C2041.3 227.8 2034.9 223.088 2029.92 213.666C2025.12 204.245 2022.72 193.755 2022.72 182.2C2022.72 175.266 2023.79 168.6 2025.92 162.2C2031.09 145.666 2041.92 131 2058.45 118.2C2075.16 105.222 2089.38 98.733 2101.11 98.733C2108.41 98.733 2113.64 102.022 2116.84 108.6C2120.04 115 2120.94 123.888 2119.5 135.266H2121.9L2152.3 100.866H2161.1C2147.77 126.644 2136.3 149.4 2126.7 169.133C2123.69 175.533 2119.6 184.155 2114.44 195C2109.47 205.666 2105.47 213.933 2102.44 219.8C2099.61 225.666 2096.49 231.445 2093.11 237.133L2090.44 241.4H2111.51L2108.57 247.533H2086.44C2078.09 259.621 2068.23 268.866 2056.85 275.266C2045.65 281.666 2030.82 284.866 2012.32 284.866H2010.19ZM2051.25 219.266C2058.18 219.266 2066.28 214.466 2075.51 204.866C2084.94 195.088 2093.11 183.088 2100.04 168.866L2104.57 159.8C2107.77 153.4 2110.17 147.355 2111.77 141.666C2113.37 135.977 2114.17 131.088 2114.17 127C2114.17 122.733 2113.55 119.177 2112.31 116.333C2111.24 113.311 2109.64 111.088 2107.51 109.666C2105.56 108.066 2103.24 107.266 2100.57 107.266C2094.54 107.266 2088.04 110.822 2081.11 117.933C2074.36 125.044 2067.88 134.911 2061.65 147.533L2053.38 164.066C2044.68 181.488 2040.32 195 2040.32 204.6C2040.32 214.378 2043.97 219.266 2051.25 219.266ZM1988.06 263.8C1988.06 268.245 1990.19 271.711 1994.46 274.2C1998.72 276.866 2004.69 278.2 2012.32 278.2H2013.92C2024.95 278.2 2034.45 275.8 2042.45 271C2050.45 266.378 2058.18 258.555 2065.65 247.533H2018.19C2008.59 247.533 2001.22 248.955 1996.06 251.8C1990.73 254.645 1988.06 258.645 1988.06 263.8ZM2196.86 94.9996V89.1329L2207.52 88.0663C2214.27 87.3551 2218.8 86.3775 2221.12 85.133C2223.6 83.7108 2224.84 81.5775 2224.84 78.733V22.4663C2224.84 16.9551 2222.09 15.6218 2216.59 18.4663L2195.52 30.1996V22.1996L2234.45 0.599609H2243.25V78.733C2243.25 81.7551 2244.32 83.8885 2246.45 85.133C2248.58 86.3775 2253.01 87.3551 2259.78 88.0663L2269.65 89.1329V94.9996H2196.86ZM2270.99 92.0663C2288.94 88.6885 2301.39 84.9551 2308.32 80.8663C2315.42 76.7775 2318.99 71.533 2318.99 65.133V62.1996C2318.99 53.3108 2313.82 48.8663 2303.52 48.8663C2298.36 48.8663 2292.67 50.6441 2286.46 54.1996V46.9996L2324.05 16.8663V15.533H2290.19C2286.09 15.533 2283.08 16.4218 2281.13 18.1996C2279.16 19.7996 2276.86 23.0885 2274.19 28.0663H2268.86L2274.99 2.73296H2336.58V15.2663L2302.46 42.4663V44.333C2307.79 43.4441 2311.07 42.9996 2312.32 42.9996C2319.25 42.9996 2325.2 44.6885 2330.18 48.0663C2335.33 51.4441 2337.92 56.2441 2337.92 62.4663C2337.92 71.1775 2332.4 78.3775 2321.39 84.0663C2310.54 89.7551 2293.74 94.5551 2270.99 98.4663V92.0663Z" fill="white"/>
</svg>
