<svg xmlns="http://www.w3.org/2000/svg" width="131" height="129" viewBox="0 0 131 129" fill="none">
  <g clip-path="url(#clip0_371_4130)">
    <path d="M105.301 44C91.4937 20.0854 60.9141 11.8916 36.9995 25.6987C13.0849 39.5058 4.89112 70.0854 18.6982 94C32.5054 117.915 63.0849 126.108 86.9995 112.301C110.914 98.4942 119.108 67.9146 105.301 44Z" fill="white"/>
    <path d="M38.3393 79.132L37.7704 78.1466L39.0478 77.1354C40.0752 76.3233 40.6346 75.6171 40.726 75.017C40.8016 74.3894 40.5707 73.6103 40.0335 72.6797L26.9727 50.0578C26.4038 49.0725 25.8446 48.4831 25.2949 48.2895C24.7567 48.0528 23.9008 48.1821 22.7269 48.6773L21.1304 49.3253L20.5615 48.34L34.2332 40.4466L34.8021 41.432L33.2546 42.5443C31.8283 43.5504 31.0089 44.4066 30.7964 45.1132C30.5681 45.7924 30.7305 46.611 31.2836 47.569L44.2021 69.9445C44.8658 71.0941 45.5315 71.8046 46.1991 72.076C46.8784 72.3043 47.7654 72.1023 48.8602 71.4702L51.8162 69.7636C53.0752 69.0367 53.7297 67.6735 53.7796 65.674C53.8569 63.6587 53.4626 60.5106 52.5968 56.2297L53.9927 55.4238L57.3072 68.1809L38.3393 79.132ZM62.155 65.382L61.5861 64.3966L62.8635 63.3854C63.8909 62.5733 64.4503 61.8671 64.5417 61.267C64.6173 60.6394 64.3864 59.8603 63.8492 58.9297L50.7884 36.3078C50.2195 35.3225 49.6603 34.7331 49.1106 34.5395C48.5724 34.3028 47.7165 34.4321 46.5426 34.9273L44.9461 35.5753L44.3772 34.59L58.0489 26.6966L58.6178 27.682L57.0703 28.7943C55.644 29.8004 54.8246 30.6566 54.6121 31.3632C54.3838 32.0424 54.5462 32.861 55.0993 33.819L68.0178 56.1945C68.6815 57.3441 69.3472 58.0546 70.0148 58.326C70.6941 58.5543 71.5811 58.3523 72.6759 57.7202L75.6319 56.0136C76.8909 55.2867 77.5454 53.9235 77.5953 51.924C77.6726 49.9087 77.2783 46.7606 76.4125 42.4797L77.8084 41.6738L81.1229 54.4309L62.155 65.382ZM69.5158 109.902C66.8061 111.466 64.127 111.535 61.4785 110.108L62.3594 113.814L61.2098 114.478L53.54 103.469L54.8127 102.734C57.4712 105.506 59.9262 107.482 62.1777 108.664C64.4407 109.803 66.5439 109.811 68.4872 108.689C70.1568 107.725 71.0798 106.353 71.2561 104.572C71.444 102.749 71.0402 100.975 70.0446 99.2502C69.2387 97.8543 68.0259 96.6386 66.4062 95.603C64.7981 94.5243 63.2342 93.7119 61.7147 93.166C60.1794 92.5927 58.6255 91.8293 57.0532 90.8758C55.4925 89.8792 54.3486 88.7513 53.6217 87.4923C52.2943 85.1932 51.9661 82.7915 52.6371 80.2875C53.3354 77.7677 54.7931 75.8678 57.0101 74.5878C59.4187 73.1972 61.7856 72.9985 64.1107 73.9917L63.5744 71.0716L64.5187 70.5264L71.1692 79.7699L69.9375 80.481C65.3831 75.3737 61.3678 73.8236 57.8918 75.8305C56.4685 76.6522 55.6581 77.777 55.4606 79.2048C55.2747 80.5894 55.5689 81.9523 56.3432 83.2935C57.086 84.5799 58.2298 85.7077 59.7747 86.677C61.347 87.6304 62.8929 88.3801 64.4125 88.9261C65.9593 89.4563 67.5211 90.2333 69.0976 91.2573C70.7015 92.2655 71.8907 93.4402 72.665 94.7813C74.182 97.4089 74.6904 100.217 74.1902 103.207C73.7015 106.153 72.1434 108.385 69.5158 109.902ZM89.7943 98.0843C88.2615 98.9693 86.4752 98.8146 84.4354 97.6201C82.4229 96.4099 80.6739 94.5184 79.1885 91.9456C77.4028 88.8527 76.4141 85.5916 76.2224 82.1623C75.9672 77.6749 76.6502 73.0108 78.2711 68.17C79.9195 63.3134 81.8932 60.2215 84.1924 58.8941C85.8073 57.9617 87.4972 58.0444 89.2622 59.142L89.1145 56.326L89.9766 55.8282L95.5314 65.9234L94.3407 66.6108C92.0971 63.6728 90.2381 61.7171 88.7637 60.7436C87.2893 59.7701 86.0046 59.5995 84.9098 60.2316C81.899 61.9699 80.6777 66.7442 81.2456 74.5545L81.9941 84.1947C82.2956 88.5094 83.0942 91.789 84.39 94.0334C85.0537 95.183 85.81 95.9871 86.6588 96.446C87.5191 96.8615 88.3599 96.8324 89.181 96.3583C90.7411 95.4575 91.8512 93.4298 92.5115 90.2751C93.1559 87.0929 93.3181 83.8973 92.998 80.6881L92.8016 78.8309C92.7739 77.8979 92.5457 77.2816 92.1171 76.9816C91.7001 76.6385 91.0262 76.7356 90.0956 77.2729L87.7554 78.624L87.6538 76.9309L95.7829 72.2376L96.2599 72.4001L98.0813 93.1904L97.0959 93.7593L94.6066 88.0254L94.196 88.2624C93.5059 93.5145 92.0387 96.7886 89.7943 98.0843Z" fill="#288DFF"/>
  </g>
  <defs>
    <clipPath id="clip0_371_4130">
      <rect width="100" height="100" fill="white" transform="translate(-6.30176 50.6987) rotate(-30)"/>
    </clipPath>
  </defs>
</svg>