<svg width="1491" height="220" viewBox="0 0 1491 220" fill="none" xmlns="http://www.w3.org/2000/svg">
<path d="M169.274 6.05273H149.658V36.8031V122.422V153.181H188.899V122.422V6.05273H169.274Z" fill="white"/>
<path d="M50.7093 158.603C42.2563 158.603 34.1083 156.793 26.2566 153.181C18.4049 149.569 12.0695 144.286 7.24169 137.349C2.4139 130.412 0 122.126 0 112.473C0 101.42 2.56204 92.5766 7.69484 85.9443C12.8276 79.3121 19.8166 74.29 28.6705 70.8694C37.5243 67.4575 47.1799 65.0466 57.6459 63.6366L78.4734 61.2257C82.4995 60.6251 85.7151 59.7721 88.129 58.6667C90.5429 57.5614 92.2509 56.1514 93.2618 54.4454C94.264 52.7395 94.7694 50.581 94.7694 47.9611C94.7694 43.1393 92.7564 38.8657 88.7303 35.1492C84.7042 31.4327 78.9702 29.5701 71.528 29.5701C66.0902 29.5701 61.3147 30.5797 57.1928 32.5816C53.0622 34.5922 49.8465 37.3077 47.5285 40.7196C45.2105 44.1402 43.7551 48.4572 43.1539 53.6882H3.01519C3.81692 43.4352 7.04126 34.2962 12.6795 26.254C18.309 18.2204 25.9603 11.9885 35.6159 7.55829C45.2802 3.14548 56.6438 0.926025 69.7241 0.926025C84.8175 0.926025 97.0874 3.48493 106.551 8.61144C116.006 13.738 122.9 21.171 127.231 30.9192C131.553 40.6674 133.723 52.4784 133.723 66.3435V153.172H97.2007V147.445C97.2007 145.034 97.3489 142.675 97.6539 140.36C97.9589 138.054 98.3075 135.686 98.7083 133.275C94.6823 140.508 88.7913 146.54 81.0529 151.362C73.3058 156.184 63.1883 158.595 50.718 158.595L50.7093 158.603ZM61.8812 129.959C68.3211 129.959 74.1075 128.558 79.2403 125.738C84.3731 122.927 88.3992 118.958 91.3185 113.831C94.2291 108.705 95.6931 102.83 95.6931 96.1974V81.1224C94.2814 82.3323 92.2684 83.3854 89.654 84.2906C87.0397 85.1958 83.4145 86.1532 78.7872 87.1542L67.319 89.2605C61.8899 90.2701 57.0011 91.6714 52.6787 93.4818C48.3477 95.2922 45.0797 97.5551 42.8663 100.262C40.6528 102.978 39.5461 106.442 39.5461 110.663C39.5461 116.895 41.7073 121.665 46.0383 124.981C50.3607 128.297 55.6503 129.951 61.8899 129.951L61.8812 129.959Z" fill="white"/>
<path d="M206.903 153.181V6.05245H245.839V12.0842C245.839 14.0947 245.787 16.3055 245.691 18.7164C245.586 21.1274 245.333 23.6427 244.933 26.2539C247.747 21.6322 251.12 17.4109 255.041 13.5899C258.963 9.77766 263.843 6.70524 269.682 4.39004C275.52 2.08354 282.361 0.917236 290.204 0.917236C301.071 0.917236 310.378 3.32818 318.125 8.15876C325.872 12.9806 331.754 19.8131 335.781 28.6561C339.807 37.4991 341.82 47.9523 341.82 60.007V153.163H302.884V66.0475C302.884 59.0148 301.829 52.9831 299.712 47.961C297.603 42.939 294.579 39.0223 290.657 36.2023C286.736 33.391 281.952 31.9809 276.322 31.9809C270.283 31.9809 265.046 33.4867 260.627 36.5069C256.2 39.5184 252.671 43.6962 250.065 49.0142C247.451 54.3409 246.144 60.3204 246.144 66.9526V153.181H206.903V153.181Z" fill="white"/>
<path d="M429.774 158.603C414.881 158.603 401.705 155.487 390.228 149.255C378.76 143.023 369.749 134.085 363.214 122.422C356.669 110.767 353.401 96.5976 353.401 79.9125C353.401 67.8491 355.31 56.952 359.135 47.2038C362.952 37.4556 368.242 29.1696 374.987 22.3285C381.723 15.496 389.723 10.2216 398.986 6.49635C408.241 2.77984 418.507 0.917236 429.774 0.917236C444.667 0.917236 457.844 4.13763 469.32 10.5697C480.789 17.0018 489.791 26.1494 496.335 38.0039C502.871 49.8672 506.148 63.8367 506.148 79.9125C506.148 95.9884 502.871 110.767 496.335 122.422C489.791 134.076 480.789 143.023 469.32 149.255C457.852 155.487 444.667 158.603 429.774 158.603V158.603ZM429.774 128.149C436.816 128.149 443.099 126.243 448.641 122.422C454.175 118.609 458.497 113.074 461.617 105.841C464.737 98.6082 466.297 89.9654 466.297 79.9125C466.297 69.8597 464.737 61.2169 461.617 53.984C458.497 46.7512 454.218 41.2766 448.789 37.5514C443.36 33.8348 437.016 31.9722 429.774 31.9722C422.533 31.9722 416.136 33.8348 410.603 37.5514C405.069 41.2766 400.738 46.7512 397.618 53.984C394.498 61.2169 392.938 69.8684 392.938 79.9125C392.938 89.9567 394.498 98.6082 397.618 105.841C400.738 113.074 405.017 118.609 410.446 122.422C415.875 126.243 422.315 128.149 429.766 128.149H429.774Z" fill="white"/>
<path d="M517.372 153.181V106.155H565.371V153.181H517.372Z" fill="white"/>
<path d="M630.502 158.603C622.049 158.603 613.901 156.793 606.05 153.181C598.198 149.569 591.863 144.286 587.035 137.349C582.207 130.412 579.793 122.126 579.793 112.473C579.793 101.42 582.355 92.5766 587.488 85.9443C592.621 79.3121 599.61 74.29 608.464 70.8694C617.318 67.4575 626.973 65.0466 637.439 63.6366L658.267 61.2257C662.293 60.6251 665.508 59.7721 667.922 58.6667C670.336 57.5614 672.044 56.1514 673.055 54.4454C674.057 52.7395 674.563 50.581 674.563 47.9611C674.563 43.1393 672.55 38.8657 668.524 35.1492C664.497 31.4327 658.763 29.5701 651.321 29.5701C645.883 29.5701 641.108 30.5797 636.986 32.5816C632.855 34.5922 629.64 37.3077 627.322 40.7196C625.004 44.1402 623.548 48.4572 622.947 53.6882H582.8C583.601 43.4352 586.826 34.2962 592.464 26.254C598.093 18.2204 605.745 11.9885 615.4 7.55829C625.065 3.13678 636.428 0.926025 649.509 0.926025C664.602 0.926025 676.872 3.48493 686.336 8.61144C695.791 13.738 702.684 21.171 707.015 30.9192C711.337 40.6674 713.507 52.4784 713.507 66.3435V153.172H676.985V147.445C676.985 145.034 677.133 142.675 677.438 140.36C677.743 138.054 678.092 135.686 678.493 133.275C674.467 140.508 668.576 146.54 660.837 151.362C653.09 156.184 642.973 158.595 630.502 158.595V158.603ZM641.674 129.959C648.114 129.959 653.901 128.558 659.033 125.738C664.166 122.927 668.192 118.958 671.112 113.831C674.022 108.705 675.486 102.83 675.486 96.1974V81.1224C674.075 82.3323 672.062 83.3854 669.447 84.2906C666.833 85.1958 663.208 86.1532 658.58 87.1542L647.112 89.2605C641.683 90.2701 636.794 91.6714 632.472 93.4818C628.141 95.2922 624.873 97.5551 622.659 100.262C620.446 102.978 619.339 106.442 619.339 110.663C619.339 116.895 621.5 121.665 625.832 124.981C630.154 128.297 635.444 129.951 641.683 129.951L641.674 129.959Z" fill="white"/>
<path d="M801.654 219.808C786.961 219.808 774.491 217.441 764.225 212.723C753.96 207.997 746.117 201.269 740.679 192.522C735.25 183.775 732.531 173.774 732.531 162.52H772.373C772.774 170.963 775.546 177.543 780.67 182.269C785.802 186.986 793.096 189.354 802.552 189.354C812.007 189.354 820.102 186.638 826.847 181.216C833.584 175.793 836.956 167.751 836.956 157.098V141.718C836.956 138.306 837.052 135.19 837.261 132.37C837.462 129.559 837.662 126.643 837.862 123.632C835.248 128.053 831.823 132.126 827.597 135.843C823.37 139.568 818.394 142.475 812.652 144.582C806.917 146.697 800.225 147.75 792.582 147.75C780.103 147.75 768.888 144.886 758.927 139.159C748.966 133.432 741.115 125.094 735.381 114.136C729.647 103.186 726.78 89.8697 726.78 74.1856C726.78 62.7314 728.592 52.4349 732.209 43.2872C735.834 34.1396 740.662 26.4541 746.701 20.2223C752.74 13.9904 759.581 9.22071 767.223 5.90457C774.866 2.58844 782.813 0.926025 791.066 0.926025C799.318 0.926025 806.464 2.0314 812.495 4.24216C818.534 6.45291 823.614 9.42089 827.736 13.1374C831.858 16.8626 835.231 21.2319 837.845 26.254C837.645 23.6428 837.435 21.2319 837.244 19.0211C837.043 16.8104 836.939 14.3994 836.939 11.7883V6.05254H876.18V147.454C876.18 163.73 873.06 177.247 866.82 188.005C860.581 198.754 851.823 206.744 840.555 211.975C829.279 217.197 816.303 219.817 801.619 219.817L801.654 219.808ZM803.162 116.703C808.39 116.703 813.218 115.65 817.654 113.535C822.081 111.429 825.906 108.513 829.122 104.797C832.337 101.08 834.856 96.6587 836.669 91.5321C838.481 86.4056 839.387 80.6263 839.387 74.1943C839.387 65.9518 837.828 58.6668 834.708 52.3391C831.588 46.0028 827.309 41.0329 821.88 37.4122C816.451 33.7914 810.212 31.9897 803.162 31.9897C796.112 31.9897 789.828 33.8001 784.295 37.4122C778.761 41.0329 774.43 46.0028 771.31 52.3391C768.191 58.6755 766.631 65.9605 766.631 74.1943C766.631 82.428 768.191 89.774 771.31 96.2061C774.43 102.638 778.752 107.66 784.295 111.281C789.828 114.902 796.112 116.703 803.162 116.703V116.703Z" fill="white"/>
<path d="M964.448 158.603C949.555 158.603 936.422 155.539 925.059 149.403C913.686 143.276 904.78 134.285 898.349 122.422C891.909 110.567 888.685 96.1886 888.685 79.312C888.685 63.8367 891.9 50.1718 898.349 38.3086C904.789 26.4541 913.643 17.2542 924.911 10.7177C936.178 4.18985 948.954 0.917236 963.245 0.917236C978.539 0.917236 991.515 4.18985 1002.18 10.7177C1012.85 17.2542 1021 26.4976 1026.63 38.4565C1032.26 50.4155 1035.09 64.533 1035.09 80.8177V88.9557H928.536C928.736 96.3975 930.348 103.082 933.364 109C936.379 114.928 940.553 119.654 945.895 123.17C951.228 126.687 957.416 128.445 964.457 128.445C972.099 128.445 978.74 126.391 984.378 122.265C990.007 118.148 993.432 112.369 994.644 104.927H1034.19C1033.18 114.98 1029.76 124.067 1023.93 132.213C1018.09 140.351 1010.09 146.792 999.933 151.51C989.772 156.227 977.947 158.594 964.465 158.594L964.448 158.603ZM928.222 61.8261H994.931C994.931 52.1824 992.012 44.3925 986.173 38.4652C980.334 32.538 972.587 29.57 962.932 29.57C956.692 29.57 951.054 30.98 946.026 33.7913C940.998 36.6113 936.971 40.4236 933.956 45.2455C930.941 50.0674 929.024 55.6029 928.222 61.8261Z" fill="white"/>
<path d="M1049.03 153.181V6.05245H1087.97V12.0842C1087.97 14.0947 1087.91 16.3055 1087.82 18.7164C1087.71 21.1274 1087.46 23.6427 1087.06 26.2539C1089.87 21.6322 1093.25 17.4109 1097.17 13.5899C1101.09 9.77766 1105.97 6.70524 1111.81 4.39004C1117.65 2.08354 1124.49 0.917236 1132.34 0.917236C1143.21 0.917236 1152.51 3.32818 1160.26 8.15876C1168.01 12.9806 1173.89 19.8131 1177.92 28.6561C1181.94 37.4991 1183.96 47.9523 1183.96 60.007V153.163H1145.02V66.0475C1145.02 59.0148 1143.97 52.9831 1141.85 47.961C1139.73 42.939 1136.71 39.0223 1132.79 36.2023C1128.87 33.391 1124.09 31.9809 1118.46 31.9809C1112.42 31.9809 1107.19 33.4867 1102.76 36.5069C1098.34 39.5184 1094.81 43.6962 1092.2 49.0142C1089.59 54.3409 1088.28 60.3204 1088.28 66.9526V153.181H1049.04H1049.03Z" fill="white"/>
<path d="M1270.69 158.603C1255.2 158.603 1241.81 155.383 1230.54 148.96C1219.28 142.527 1210.62 133.432 1204.58 121.673C1198.54 109.914 1195.53 95.797 1195.53 79.3121C1195.53 67.2487 1197.53 56.3516 1201.57 46.6033C1205.59 36.8551 1211.08 28.5692 1218.02 21.728C1224.97 14.8956 1233.11 9.71682 1242.47 6.2005C1251.83 2.68418 1261.84 0.926025 1272.5 0.926025C1287 0.926025 1299.37 3.6416 1309.64 9.06404C1319.9 14.4865 1327.8 21.8325 1333.33 31.0758C1338.86 40.3192 1342.24 50.6767 1343.45 62.1308H1303.6C1303.2 54.0973 1300.49 47.0559 1295.46 41.0242C1290.42 34.9925 1282.88 31.981 1272.82 31.981C1267.58 31.981 1262.75 32.9384 1258.32 34.8446C1253.9 36.7594 1249.92 39.7709 1246.4 43.8878C1242.88 48.0134 1240.16 53.0354 1238.26 58.9627C1236.34 64.8899 1235.39 71.7746 1235.39 79.6167C1235.39 89.069 1236.95 97.4594 1240.07 104.788C1243.19 112.125 1247.46 117.852 1252.9 121.969C1258.32 126.086 1264.67 128.149 1271.91 128.149C1282.58 128.149 1290.58 124.937 1295.91 118.505C1301.24 112.073 1304.31 104.64 1305.12 96.1974H1344.96C1343.15 108.861 1339.23 119.863 1333.19 129.211C1327.15 138.559 1318.95 145.791 1308.59 150.918C1298.22 156.044 1285.59 158.603 1270.71 158.603H1270.69Z" fill="white"/>
<path d="M1367.86 219.808C1363.43 219.808 1359.66 219.556 1356.54 219.051C1353.42 218.546 1350.85 217.893 1348.84 217.093V186.342C1350.24 186.543 1351.96 186.838 1353.97 187.248C1355.99 187.648 1358.3 187.848 1360.92 187.848C1367.16 187.848 1372.89 185.986 1378.12 182.269C1383.35 178.552 1388.18 170.763 1392.61 158.908L1395.33 151.971L1338.58 6.05273H1382.64L1412.22 97.4074C1413.22 100.628 1414.13 103.587 1414.94 106.303C1415.74 109.018 1416.55 112.186 1417.35 115.798C1417.96 112.178 1418.66 109.018 1419.46 106.303C1420.27 103.587 1421.08 100.628 1421.88 97.4074L1450.25 6.05273H1491L1430.33 169.762C1426.5 180.415 1421.93 189.458 1416.6 196.891C1411.26 204.324 1404.67 210.008 1396.82 213.925C1388.97 217.841 1379.32 219.808 1367.85 219.808H1367.86Z" fill="white"/>
</svg>
