<svg width="16" height="16" viewBox="0 0 16 16" fill="none" xmlns="http://www.w3.org/2000/svg">
<path d="M13.5 14.0002C13.4343 14.0003 13.3693 13.9874 13.3086 13.9623C13.248 13.9371 13.1929 13.9002 13.1466 13.8537L2.14658 2.85366C2.05677 2.75913 2.00744 2.63326 2.00911 2.50288C2.01077 2.3725 2.06331 2.24792 2.15551 2.15572C2.24771 2.06352 2.37228 2.01099 2.50266 2.00932C2.63304 2.00765 2.75892 2.05698 2.85345 2.14679L13.8535 13.1468C13.9233 13.2167 13.9709 13.3058 13.9902 13.4027C14.0095 13.4997 13.9996 13.6002 13.9617 13.6915C13.9239 13.7829 13.8599 13.8609 13.7777 13.9159C13.6955 13.9708 13.5989 14.0002 13.5 14.0002ZM7.98939 12.0002C6.69283 12.0002 5.44251 11.6165 4.27314 10.8596C3.20845 10.1721 2.25001 9.18741 1.50126 8.01585V8.01335C2.12439 7.12054 2.80689 6.36554 3.54001 5.75679C3.54664 5.75124 3.55205 5.74438 3.5559 5.73664C3.55975 5.7289 3.56194 5.72045 3.56235 5.71181C3.56277 5.70318 3.56138 5.69455 3.55829 5.68648C3.5552 5.67841 3.55046 5.67106 3.54439 5.66491L2.92189 5.04335C2.91083 5.0322 2.89597 5.02562 2.88028 5.02492C2.86458 5.02423 2.8492 5.02947 2.8372 5.0396C2.05845 5.69585 1.33564 6.50085 0.67845 7.44335C0.565383 7.60563 0.503113 7.79787 0.499551 7.99562C0.49599 8.19338 0.551299 8.38773 0.65845 8.55398C1.48376 9.84554 2.54595 10.9334 3.7297 11.6993C5.06251 12.5627 6.49689 13.0002 7.98939 13.0002C8.795 12.9977 9.59491 12.865 10.3581 12.6071C10.3682 12.6037 10.3772 12.5978 10.3844 12.5899C10.3915 12.582 10.3965 12.5724 10.3989 12.5621C10.4013 12.5517 10.4011 12.5409 10.3981 12.5307C10.3952 12.5205 10.3897 12.5112 10.3822 12.5037L9.70783 11.8293C9.6923 11.8141 9.6731 11.8033 9.65212 11.7978C9.63113 11.7923 9.60909 11.7924 9.58814 11.798C9.06587 11.9325 8.5287 12.0005 7.98939 12.0002ZM15.3388 7.45648C14.5119 6.17773 13.4391 5.09148 12.2366 4.31491C10.9063 3.45491 9.43751 3.00023 7.98939 3.00023C7.19232 3.00164 6.40116 3.13718 5.64908 3.40116C5.63905 3.40465 5.63009 3.41063 5.62302 3.41854C5.61595 3.42645 5.61101 3.43603 5.60866 3.44638C5.60632 3.45673 5.60664 3.4675 5.60961 3.47769C5.61259 3.48787 5.6181 3.49714 5.62564 3.5046L6.29908 4.17804C6.31475 4.19345 6.33422 4.20445 6.35551 4.20994C6.37679 4.21543 6.39915 4.2152 6.42033 4.20929C6.93188 4.07091 7.45945 4.00061 7.98939 4.00023C9.26095 4.00023 10.5075 4.38866 11.6941 5.15648C12.7788 5.85648 13.7485 6.84023 14.4991 8.00023C14.4996 8.00094 14.4999 8.00182 14.4999 8.00273C14.4999 8.00363 14.4996 8.00451 14.4991 8.00523C13.9542 8.86302 13.2781 9.62996 12.4953 10.278C12.4886 10.2836 12.4831 10.2904 12.4792 10.2982C12.4753 10.3059 12.4731 10.3144 12.4727 10.3231C12.4722 10.3318 12.4736 10.3404 12.4767 10.3486C12.4798 10.3567 12.4845 10.3641 12.4906 10.3702L13.1125 10.9918C13.1235 11.0029 13.1383 11.0095 13.1539 11.0102C13.1695 11.011 13.1849 11.0059 13.1969 10.9959C14.0325 10.2923 14.7558 9.46524 15.3419 8.54335C15.4455 8.3809 15.5002 8.19212 15.4997 7.99946C15.4991 7.80679 15.4433 7.61833 15.3388 7.45648Z" fill="#288DFF"/>
<path d="M8.00002 5C7.77531 4.99988 7.5513 5.02504 7.33221 5.075C7.32114 5.0773 7.31091 5.08255 7.30259 5.09021C7.29428 5.09786 7.28819 5.10763 7.28498 5.11846C7.28178 5.1293 7.28157 5.14081 7.28438 5.15175C7.2872 5.1627 7.29293 5.17268 7.30096 5.18063L10.8194 8.69813C10.8273 8.70616 10.8373 8.71189 10.8483 8.7147C10.8592 8.71751 10.8707 8.71731 10.8816 8.7141C10.8924 8.71089 10.9022 8.70481 10.9098 8.69649C10.9175 8.68818 10.9227 8.67794 10.925 8.66688C11.0252 8.22751 11.0251 7.77123 10.9247 7.33191C10.8244 6.89259 10.6263 6.48152 10.3453 6.12923C10.0643 5.77695 9.70756 5.49249 9.30153 5.297C8.89551 5.1015 8.45066 4.99999 8.00002 5ZM5.18065 7.30188C5.1727 7.29384 5.16272 7.28811 5.15177 7.2853C5.14083 7.28249 5.12932 7.28269 5.11849 7.2859C5.10765 7.28911 5.09788 7.29519 5.09023 7.30351C5.08257 7.31182 5.07732 7.32206 5.07502 7.33313C4.96169 7.82823 4.97592 8.34401 5.11638 8.83212C5.25684 9.32022 5.51892 9.76468 5.87807 10.1238C6.23722 10.483 6.68167 10.7451 7.16978 10.8855C7.65789 11.026 8.17366 11.0402 8.66877 10.9269C8.67984 10.9246 8.69007 10.9193 8.69839 10.9117C8.70671 10.904 8.71279 10.8942 8.716 10.8834C8.7192 10.8726 8.71941 10.8611 8.7166 10.8501C8.71379 10.8392 8.70806 10.8292 8.70002 10.8212L5.18065 7.30188Z" fill="#288DFF"/>
</svg>
