<svg width="72" height="72" viewBox="0 0 72 72" fill="none" xmlns="http://www.w3.org/2000/svg">
<path d="M72 36.0875C72 31.3148 66.0269 26.7917 56.8691 23.9868C58.9825 14.6469 58.0432 7.2161 53.9046 4.83707C52.9507 4.27902 51.8353 4.01469 50.6172 4.01469V7.28952C51.2923 7.28952 51.8353 7.42169 52.2903 7.67134C54.2862 8.8168 55.1521 13.1784 54.477 18.7882C54.3155 20.1686 54.0514 21.6224 53.7285 23.1057C50.852 22.4008 47.7114 21.8574 44.4093 21.505C42.428 18.7882 40.3734 16.321 38.3041 14.1623C43.0885 9.71261 47.5793 7.27484 50.6319 7.27484V4C46.596 4 41.3127 6.87833 35.9706 11.8714C30.6286 6.9077 25.3453 4.05874 21.3094 4.05874V7.33358C24.3473 7.33358 28.8528 9.75667 33.6372 14.177C31.5826 16.3357 29.5279 18.7882 27.576 21.505C24.2593 21.8574 21.1186 22.4008 18.2422 23.1204C17.9046 21.6518 17.6551 20.2273 17.479 18.8616C16.7892 13.2518 17.6404 8.89023 19.6217 7.73008C20.062 7.46575 20.6343 7.34827 21.3094 7.34827V4.07343C20.0766 4.07343 18.9613 4.33776 17.9927 4.89581C13.8687 7.27484 12.9442 14.691 15.0722 24.0015C5.94374 26.8211 0 31.3295 0 36.0875C0 40.8603 5.97309 45.3834 15.1309 48.1883C13.0175 57.5282 13.9568 64.959 18.0954 67.338C19.0493 67.8961 20.1647 68.1604 21.3975 68.1604C25.4333 68.1604 30.7167 65.2821 36.0587 60.289C41.4007 65.2527 46.6841 68.1017 50.7199 68.1017C51.9527 68.1017 53.0681 67.8373 54.0367 67.2793C58.1606 64.9002 59.0852 57.4841 56.9572 48.1736C66.0563 45.3687 72 40.8456 72 36.0875ZM52.892 26.2924C52.349 28.1868 51.6739 30.14 50.9107 32.0931C50.309 30.9183 49.6779 29.7435 48.9882 28.5686C48.3131 27.3938 47.594 26.2483 46.8749 25.1323C48.9588 25.4406 50.9694 25.8225 52.892 26.2924ZM46.1704 41.9323C45.0257 43.9148 43.8516 45.7946 42.6335 47.5421C40.4468 47.733 38.2307 47.8358 36 47.8358C33.7839 47.8358 31.5679 47.733 29.3958 47.5568C28.1777 45.8093 26.989 43.9442 25.8443 41.9764C24.7289 40.0526 23.7163 38.0994 22.7917 36.1316C23.7016 34.1638 24.7289 32.1959 25.8296 30.2721C26.9743 28.2896 28.1484 26.4099 29.3665 24.6623C31.5532 24.4714 33.7693 24.3686 36 24.3686C38.2161 24.3686 40.4321 24.4714 42.6042 24.6476C43.8223 26.3952 45.011 28.2602 46.1557 30.2281C47.2711 32.1519 48.2837 34.105 49.2083 36.0729C48.2837 38.0407 47.2711 40.0085 46.1704 41.9323ZM50.9107 40.0232C51.7032 41.9911 52.3783 43.9589 52.936 45.868C51.0135 46.3379 48.9882 46.7344 46.8895 47.0428C47.6086 45.9121 48.3278 44.7519 49.0029 43.5624C49.678 42.3876 50.309 41.198 50.9107 40.0232ZM36.0294 55.6925C34.6645 54.2827 33.2996 52.7114 31.9495 50.9932C33.2703 51.0519 34.6205 51.096 35.9853 51.096C37.3649 51.096 38.7297 51.0666 40.0652 50.9932C38.7444 52.7114 37.3795 54.2827 36.0294 55.6925ZM25.1105 47.0428C23.0265 46.7344 21.0159 46.3526 19.0934 45.8827C19.6364 43.9883 20.3115 42.0351 21.0746 40.082C21.6763 41.2568 22.3074 42.4316 22.9971 43.6065C23.6869 44.7813 24.3914 45.9267 25.1105 47.0428ZM35.956 16.4826C37.3208 17.8924 38.6857 19.4637 40.0359 21.1819C38.715 21.1231 37.3649 21.0791 36 21.0791C34.6205 21.0791 33.2556 21.1085 31.9201 21.1819C33.2409 19.4637 34.6058 17.8924 35.956 16.4826ZM25.0958 25.1323C24.3767 26.263 23.6576 27.4232 22.9825 28.6127C22.3074 29.7875 21.6763 30.9623 21.0746 32.1372C20.2821 30.1693 19.607 28.2015 19.0493 26.2924C20.9719 25.8372 22.9971 25.4406 25.0958 25.1323ZM11.8141 43.5183C6.61884 41.3008 3.25805 38.3931 3.25805 36.0875C3.25805 33.7819 6.61884 30.8595 11.8141 28.6567C13.0762 28.1134 14.4558 27.6288 15.8793 27.1735C16.7159 30.0519 17.8166 33.0477 19.1814 36.1169C17.8312 39.1715 16.7452 42.1526 15.9234 45.0162C14.4704 44.561 13.0909 44.0617 11.8141 43.5183ZM19.7097 64.5037C17.7138 63.3583 16.8479 58.9967 17.523 53.3869C17.6845 52.0065 17.9486 50.5526 18.2715 49.0694C21.148 49.7743 24.2886 50.3177 27.5907 50.6701C29.572 53.3869 31.6266 55.8541 33.6959 58.0128C28.9115 62.4625 24.4207 64.9002 21.3681 64.9002C20.7077 64.8856 20.15 64.7534 19.7097 64.5037ZM54.521 53.3135C55.2108 58.9233 54.3596 63.2849 52.3783 64.445C51.938 64.7093 51.3657 64.8268 50.6906 64.8268C47.6527 64.8268 43.1472 62.4037 38.3628 57.9834C40.4175 55.8247 42.4721 53.3722 44.424 50.6554C47.7407 50.303 50.8814 49.7596 53.7578 49.04C54.0954 50.5233 54.3596 51.9477 54.521 53.3135ZM60.1712 43.5183C58.9091 44.0617 57.5296 44.5463 56.106 45.0016C55.2695 42.1232 54.1688 39.1274 52.8039 36.0582C54.1541 33.0036 55.2401 30.0225 56.062 27.1588C57.5149 27.6141 58.8944 28.1134 60.1859 28.6567C65.3812 30.8742 68.7419 33.7819 68.7419 36.0875C68.7273 38.3931 65.3665 41.3155 60.1712 43.5183Z" fill="#61DAFB"/>
<path d="M35.9855 42.7988C39.6896 42.7988 42.6923 39.7941 42.6923 36.0876C42.6923 32.3811 39.6896 29.3764 35.9855 29.3764C32.2813 29.3764 29.2786 32.3811 29.2786 36.0876C29.2786 39.7941 32.2813 42.7988 35.9855 42.7988Z" fill="#61DAFB"/>
</svg>
