<svg width="72" height="72" viewBox="0 0 72 72" fill="none" xmlns="http://www.w3.org/2000/svg">
<rect width="72" height="72" rx="36" fill="#0D54A5"/>
<path d="M26.7175 49.384C24.8188 49.384 23.3148 48.7333 22.2055 47.432C21.0962 46.1307 20.5415 44.1893 20.5415 41.608V28.168C20.5415 27.4213 20.4455 26.888 20.2535 26.568C20.0828 26.248 19.7202 26.0347 19.1655 25.928L18.3335 25.768V25H26.6855V25.768L25.8215 25.896C24.9895 26.024 24.4562 26.248 24.2215 26.568C24.0082 26.8667 23.9015 27.4 23.9015 28.168V42.088C23.9015 45.9067 25.1495 47.816 27.6455 47.816C28.8402 47.816 29.7788 47.3467 30.4615 46.408C31.1655 45.448 31.5175 44.008 31.5175 42.088V28.168C31.5175 27.4213 31.4215 26.888 31.2295 26.568C31.0375 26.248 30.6108 26.0347 29.9495 25.928L28.9575 25.768V25H35.1015V25.768L34.4295 25.896C33.7895 26.024 33.3735 26.248 33.1815 26.568C32.9895 26.8667 32.8935 27.4 32.8935 28.168V41.832C32.8935 44.328 32.3282 46.216 31.1975 47.496C30.0882 48.7547 28.5948 49.384 26.7175 49.384ZM45.216 49V48.296L46.4 48.168C47.232 48.104 47.776 47.944 48.032 47.688C48.3093 47.4107 48.3093 46.9307 48.032 46.248L44.416 38.6H44.128L40.48 46.344C40.2027 47.0267 40.1707 47.4853 40.384 47.72C40.6187 47.9547 41.184 48.1147 42.08 48.2L43.072 48.296V49H36.096V48.232L36.608 48.168C37.696 48.0187 38.5387 47.3253 39.136 46.088L43.584 36.84L39.264 27.752C38.944 27.048 38.6133 26.568 38.272 26.312C37.9307 26.056 37.4507 25.8853 36.832 25.8L36.384 25.736V25H45.376V25.704L44.128 25.864C42.6773 26.0133 42.2293 26.664 42.784 27.816L46.08 34.792H46.432L49.76 27.688C50.016 27.112 50.0267 26.6853 49.792 26.408C49.5787 26.1307 49.0773 25.928 48.288 25.8L47.616 25.704V25H53.792V25.768L53.28 25.832C52.7467 25.9173 52.32 26.088 52 26.344C51.7013 26.5787 51.4027 27.016 51.104 27.656L46.912 36.52L51.52 46.248C51.8187 46.888 52.16 47.3467 52.544 47.624C52.928 47.88 53.408 48.0507 53.984 48.136L54.368 48.2V49H45.216Z" fill="white"/>
</svg>
