<svg xmlns="http://www.w3.org/2000/svg" width="1502" height="285" viewBox="0 0 1502 285" fill="none">
  <path d="M0.933333 228.333V221.933L10 220.6C17.2888 219.533 22 217.667 24.1333 215C26.2667 212.155 27.3333 207.712 27.3333 201.667V54.7333C27.3333 48.3333 26.2667 43.8888 24.1333 41.4C22.1778 38.7333 17.6445 36.9555 10.5333 36.0667L0.933333 34.7333V28.3333H89.7333V34.7333L79.0667 35.8C69.2888 36.6888 62.8888 38.5555 59.8667 41.4C56.8445 44.0667 55.3333 48.5112 55.3333 54.7333V200.067C55.3333 207.533 56.5778 212.867 59.0667 216.067C61.7333 219.088 66.6222 220.6 73.7333 220.6H92.9333C101.111 220.6 108.133 215.8 114 206.2C120.044 196.6 126.978 180.155 134.8 156.867H143.867L124.133 228.333H0.933333ZM168.955 228.333V222.2L184.955 220.867C196.865 219.8 204.598 218.022 208.155 215.533C211.71 212.867 213.488 208.688 213.488 203V128.867C213.488 122.289 212.598 118.022 210.822 116.067C209.222 113.933 205.043 112.778 198.288 112.6L167.355 112.333V104.867L236.688 99L239.355 101.4V203.8C239.355 209.488 241.132 213.578 244.688 216.067C248.243 218.378 255.798 219.978 267.355 220.867L283.888 222.2V228.333H168.955ZM212.955 62.2L210.288 60.0667V33.6667L212.955 31.2667H236.422L239.088 33.6667V60.0667L236.422 62.2H212.955ZM305.508 228.333V222.733L314.575 221.4C320.975 220.512 325.153 218.822 327.108 216.333C329.063 213.667 330.042 209.667 330.042 204.333V46.4667C330.042 40.7778 329.063 37.0445 327.108 35.2667C325.33 33.4888 321.863 32.6888 316.708 32.8667L302.042 33.9333V27.5333L352.175 18.2L355.375 20.3333V148.6H359.642L395.908 121.133C400.353 117.578 402.13 114.733 401.242 112.6C400.53 110.467 397.508 109.222 392.175 108.867L381.775 108.067L382.042 101.4H443.108V108.067L439.642 108.6C433.42 109.667 428.708 110.822 425.508 112.067C422.308 113.311 417.687 116.067 411.642 120.333L380.442 142.733L448.975 225.933L448.175 228.333H427.642L360.442 158.467L355.375 161.133V205.4C355.375 210.555 356.708 214.288 359.375 216.6C362.042 218.912 367.463 220.512 375.642 221.4L386.308 222.733V228.333H305.508ZM533.797 231.8C519.397 231.8 505.885 224.512 493.262 209.933C480.818 195.178 474.597 179.978 474.597 164.333C474.597 148.511 480.997 133.4 493.797 119C506.597 104.6 520.373 97.4 535.13 97.4C547.93 97.4 559.752 102.822 570.597 113.667C581.618 124.511 588.285 136.689 590.597 150.2V155.533H506.33V158.2V171.8C506.33 188.155 508.73 200.867 513.53 209.933C518.507 218.822 525.53 223.267 534.597 223.267C538.863 223.267 542.685 222.555 546.063 221.133C549.618 219.712 553.263 216.955 556.997 212.867C560.73 208.6 563.485 205.133 565.263 202.467C567.218 199.8 570.507 194.912 575.13 187.8C576.73 185.488 577.885 183.712 578.597 182.467H588.463C584.018 189.4 581.173 193.845 579.93 195.8C578.863 197.578 576.463 201.222 572.73 206.733C568.997 212.067 566.063 215.622 563.93 217.4C561.973 219.178 559.218 221.578 555.663 224.6C552.107 227.445 548.552 229.312 544.997 230.2C541.618 231.267 537.885 231.8 533.797 231.8ZM506.597 148.067H560.463C559.93 119.089 551.485 104.6 535.13 104.6C517.707 104.6 508.197 119.089 506.597 148.067ZM629.55 228.333V221.933L648.483 220.067C658.972 219.178 665.905 217.4 669.283 214.733C672.838 211.888 674.617 206.645 674.617 199V47.5333C674.617 42.2 673.55 38.6445 671.417 36.8667C669.462 34.9112 665.462 33.9333 659.417 33.9333L630.083 34.7333V28.3333L697.817 18.2L700.483 20.3333V199C700.483 206.645 702.172 211.888 705.55 214.733C709.105 217.4 716.128 219.178 726.617 220.067L745.55 221.933V228.333H629.55ZM787.705 228.333V222.2L803.705 220.867C815.615 219.8 823.348 218.022 826.905 215.533C830.46 212.867 832.238 208.688 832.238 203V128.867C832.238 122.289 831.348 118.022 829.572 116.067C827.972 113.933 823.793 112.778 817.038 112.6L786.105 112.333V104.867L855.438 99L858.105 101.4V203.8C858.105 209.488 859.882 213.578 863.438 216.067C866.993 218.378 874.548 219.978 886.105 220.867L902.638 222.2V228.333H787.705ZM831.705 62.2L829.038 60.0667V33.6667L831.705 31.2667H855.172L857.838 33.6667V60.0667L855.172 62.2H831.705ZM1035.46 209.933C1022.3 224.512 1008.97 231.8 995.458 231.8C981.947 231.8 968.613 224.512 955.458 209.933C942.303 195.178 935.725 180.067 935.725 164.6C935.725 149.133 942.303 134.111 955.458 119.533C968.613 104.778 981.947 97.4 995.458 97.4C1008.97 97.4 1022.3 104.778 1035.46 119.533C1048.61 134.111 1055.19 149.133 1055.19 164.6C1055.19 180.067 1048.61 195.178 1035.46 209.933ZM967.458 175.267C967.458 208.155 976.792 224.6 995.458 224.6C1014.12 224.6 1023.46 208.155 1023.46 175.267V153.133C1023.46 120.778 1014.12 104.6 995.458 104.6C976.792 104.6 967.458 120.778 967.458 153.133V175.267ZM1161.08 228.333V222.733L1167.21 221.4C1171.48 220.333 1174.23 218.645 1175.48 216.333C1176.72 213.845 1177.35 209.845 1177.35 204.333V144.333C1177.35 122.289 1170.59 111.267 1157.08 111.267C1150.5 111.267 1144.19 114.467 1138.15 120.867C1131.39 127.622 1128.01 134.733 1128.01 142.2V205.4C1128.01 210.733 1128.55 214.555 1129.61 216.867C1130.86 219 1133.61 220.512 1137.88 221.4L1144.28 222.733V228.333H1083.75V222.467L1090.41 221.133C1095.39 220.067 1098.59 218.288 1100.01 215.8C1101.43 213.312 1102.15 209.4 1102.15 204.067V127.267C1102.15 121.4 1101.35 117.667 1099.75 116.067C1098.15 114.467 1094.68 113.578 1089.35 113.4L1078.68 113.133V106.467L1124.28 99L1126.41 101.133V119.267H1130.15C1137.61 111.444 1143.92 105.844 1149.08 102.467C1154.23 99.0888 1160.01 97.4 1166.41 97.4C1177.61 97.4 1186.5 101.933 1193.08 111C1199.83 119.889 1203.21 131.889 1203.21 147V204.867C1203.21 210.022 1203.92 213.845 1205.35 216.333C1206.95 218.645 1210.15 220.245 1214.95 221.133L1221.88 222.467V228.333H1161.08ZM1303.77 231.533C1286.17 231.533 1272.92 224.333 1264.03 209.933L1257.9 230.467H1250.43L1244.03 155.267H1252.3C1257.45 176.245 1263.85 192.778 1271.5 204.867C1279.32 216.778 1289.55 222.733 1302.17 222.733C1313.01 222.733 1321.37 218.645 1327.23 210.467C1333.28 202.112 1336.3 192.333 1336.3 181.133C1336.3 172.067 1333.81 162.733 1328.83 153.133C1324.03 143.355 1318.7 135 1312.83 128.067C1306.97 120.955 1301.54 112.867 1296.57 103.8C1291.77 94.5555 1289.37 85.8445 1289.37 77.6667C1289.37 62.7333 1294.52 50.1112 1304.83 39.8C1315.32 29.4888 1327.77 24.3333 1342.17 24.3333C1357.81 24.3333 1369.9 30.0222 1378.43 41.4L1384.03 25.6667H1390.17L1396.57 89.4H1388.57C1380.74 51.7112 1365.55 32.8667 1342.97 32.8667C1333.72 32.8667 1326.61 36.0667 1321.63 42.4667C1316.83 48.6888 1314.43 56.1555 1314.43 64.8667C1314.43 73.2222 1316.83 81.9333 1321.63 91C1326.61 100.067 1332.03 108.067 1337.9 115C1343.94 121.933 1349.37 130.111 1354.17 139.533C1359.15 148.955 1361.63 158.022 1361.63 166.733C1361.63 183.8 1356.21 198.912 1345.37 212.067C1334.7 225.045 1320.83 231.533 1303.77 231.533ZM1433.39 231.8C1423.43 231.8 1415.52 226.645 1409.65 216.333C1403.79 206.022 1400.85 195.355 1400.85 184.333C1400.85 170.467 1406.01 156.689 1416.32 143C1426.81 129.133 1438.63 118.289 1451.79 110.467C1464.94 102.644 1476.32 98.7333 1485.92 98.7333C1495.7 98.7333 1503.52 103.889 1509.39 114.2C1515.25 124.333 1518.19 135 1518.19 146.2C1518.19 160.067 1513.03 173.845 1502.72 187.533C1492.41 201.222 1480.68 212.067 1467.52 220.067C1454.36 227.888 1442.99 231.8 1433.39 231.8ZM1433.92 224.333C1447.96 224.333 1462.72 209.133 1478.19 178.733L1487.25 160.333C1494.9 145.222 1498.72 132.689 1498.72 122.733C1498.72 111.711 1494.19 106.2 1485.12 106.2C1471.08 106.2 1456.32 121.489 1440.85 152.067L1431.79 170.2C1424.14 185.488 1420.32 198.112 1420.32 208.067C1420.32 218.912 1424.85 224.333 1433.92 224.333ZM1547.28 284.867C1533.41 284.867 1522.74 282.555 1515.28 277.933C1507.63 273.312 1503.81 267.8 1503.81 261.4C1503.81 255.533 1507.36 250.733 1514.47 247C1521.41 243.267 1532.43 241.4 1547.54 241.4H1606.74C1609.41 237.133 1612.16 232.245 1615.01 226.733C1618.03 221.045 1621.5 214.378 1625.41 206.733C1629.5 199.088 1632.7 193.045 1635.01 188.6H1632.34C1613.67 214.733 1598.3 227.8 1586.21 227.8C1578.39 227.8 1571.99 223.088 1567.01 213.667C1562.21 204.245 1559.81 193.755 1559.81 182.2C1559.81 175.267 1560.87 168.6 1563.01 162.2C1568.16 145.667 1579.01 131 1595.54 118.2C1612.25 105.222 1626.47 98.7333 1638.21 98.7333C1645.5 98.7333 1650.74 102.022 1653.94 108.6C1657.15 115 1658.03 123.889 1656.61 135.267H1659.02L1689.42 100.867H1698.22C1684.88 126.644 1673.42 149.4 1663.82 169.133C1660.78 175.533 1656.7 184.155 1651.54 195C1646.56 205.667 1642.56 213.933 1639.54 219.8C1636.7 225.667 1633.59 231.445 1630.21 237.133L1627.54 241.4H1648.61L1645.67 247.533H1623.54C1615.19 259.622 1605.32 268.867 1593.94 275.267C1582.74 281.667 1567.9 284.867 1549.41 284.867H1547.28ZM1588.34 219.267C1595.27 219.267 1603.36 214.467 1612.61 204.867C1622.03 195.088 1630.21 183.088 1637.14 168.867L1641.68 159.8C1644.87 153.4 1647.28 147.355 1648.87 141.667C1650.47 135.978 1651.27 131.089 1651.27 127C1651.27 122.733 1650.65 119.178 1649.41 116.333C1648.34 113.311 1646.74 111.089 1644.61 109.667C1642.65 108.067 1640.34 107.267 1637.67 107.267C1631.63 107.267 1625.14 110.822 1618.21 117.933C1611.45 125.044 1604.96 134.911 1598.74 147.533L1590.48 164.067C1581.76 181.488 1577.41 195 1577.41 204.6C1577.41 214.378 1581.05 219.267 1588.34 219.267ZM1525.14 263.8C1525.14 268.245 1527.28 271.712 1531.54 274.2C1535.81 276.867 1541.76 278.2 1549.41 278.2H1551.01C1562.03 278.2 1571.54 275.8 1579.54 271C1587.54 266.378 1595.28 258.555 1602.74 247.533H1555.27C1545.67 247.533 1538.3 248.955 1533.14 251.8C1527.81 254.645 1525.14 258.645 1525.14 263.8ZM1729.7 231.533C1721.87 231.533 1715.57 226.822 1710.77 217.4C1706.13 207.978 1703.83 197.222 1703.83 185.133C1703.83 176.955 1704.9 169.312 1707.03 162.2C1712 146.2 1723.03 131.622 1740.1 118.467C1757.33 105.311 1771.73 98.7333 1783.3 98.7333C1790.58 98.7333 1795.83 102.111 1799.03 108.867C1802.4 115.622 1803.2 124.778 1801.43 136.333H1803.83L1833.97 100.867H1843.3L1803.57 180.067C1797.87 191.445 1794.32 200.688 1792.9 207.8C1791.65 214.733 1793.33 218.645 1797.97 219.533C1805.43 219.533 1814.93 208.333 1826.5 185.933H1835.03C1826.5 202.467 1818.77 214.2 1811.83 221.133C1805.07 227.888 1798.23 231.267 1791.3 231.267C1782.77 231.267 1777.43 227.088 1775.3 218.733C1773.17 210.2 1774.58 200.778 1779.57 190.467H1776.9C1758.58 217.845 1742.85 231.533 1729.7 231.533ZM1732.9 221.933C1739.47 221.933 1747.47 216.955 1756.9 207C1766.32 197.045 1774.5 184.778 1781.43 170.2L1785.97 160.867C1791.3 149.844 1794.4 140.155 1795.3 131.8C1796.37 123.267 1795.65 117.044 1793.17 113.133C1790.85 109.222 1787.38 107.267 1782.77 107.267C1770.32 107.267 1757.07 121.044 1743.03 148.6L1734.5 165.133C1725.78 181.667 1721.43 195.267 1721.43 205.933C1721.43 210.733 1722.4 214.645 1724.37 217.667C1726.5 220.512 1729.33 221.933 1732.9 221.933ZM1939.05 231C1928.38 231 1922.52 225.578 1921.45 214.733C1921.1 206.378 1925.37 194.555 1934.25 179.267L1955.05 143.8C1961.45 132.422 1964.65 124.333 1964.65 119.533C1964.65 114.022 1961.9 111.267 1956.38 111.267C1947.85 111.267 1937.72 118.2 1925.98 132.067C1914.43 145.933 1902.97 164.512 1891.58 187.8L1871.85 228.333H1845.45L1896.65 124.6C1899.5 119.089 1900.65 115.178 1900.12 112.867C1899.58 110.555 1897 109.4 1892.38 109.4H1877.18L1880.38 102.733H1904.12L1924.92 101.667L1926.52 104.333C1919.93 116.067 1912.2 130.733 1903.32 148.333H1906.25C1919.05 130.2 1929.98 117.4 1939.05 109.933C1948.3 102.467 1957 98.7333 1965.18 98.7333C1971.93 98.7333 1977.18 100.689 1980.92 104.6C1984.83 108.511 1986.78 113.667 1986.78 120.067C1986.78 129.311 1982.33 141.578 1973.45 156.867L1955.58 187C1947.58 200.688 1943.67 209.578 1943.85 213.667C1943.85 217.222 1945.53 219 1948.92 219C1957.27 219 1967.58 208.067 1979.85 186.2H1988.38C1971.67 216.067 1955.23 231 1939.05 231ZM2011.33 284.867C1997.47 284.867 1986.8 282.555 1979.33 277.933C1971.7 273.312 1967.87 267.8 1967.87 261.4C1967.87 255.533 1971.43 250.733 1978.53 247C1985.47 243.267 1996.5 241.4 2011.6 241.4H2070.8C2073.47 237.133 2076.23 232.245 2079.07 226.733C2082.1 221.045 2085.57 214.378 2089.47 206.733C2093.57 199.088 2096.77 193.045 2099.07 188.6H2096.4C2077.73 214.733 2062.37 227.8 2050.27 227.8C2042.45 227.8 2036.05 223.088 2031.07 213.667C2026.27 204.245 2023.87 193.755 2023.87 182.2C2023.87 175.267 2024.93 168.6 2027.07 162.2C2032.23 145.667 2043.07 131 2059.6 118.2C2076.32 105.222 2090.53 98.7333 2102.27 98.7333C2109.57 98.7333 2114.8 102.022 2118 108.6C2121.2 115 2122.1 123.889 2120.67 135.267H2123.07L2153.47 100.867H2162.27C2148.93 126.644 2137.47 149.4 2127.87 169.133C2124.85 175.533 2120.77 184.155 2115.6 195C2110.63 205.667 2106.63 213.933 2103.6 219.8C2100.77 225.667 2097.65 231.445 2094.27 237.133L2091.6 241.4H2112.67L2109.73 247.533H2087.6C2079.25 259.622 2069.38 268.867 2058 275.267C2046.8 281.667 2031.97 284.867 2013.47 284.867H2011.33ZM2052.4 219.267C2059.33 219.267 2067.43 214.467 2076.67 204.867C2086.1 195.088 2094.27 183.088 2101.2 168.867L2105.73 159.8C2108.93 153.4 2111.33 147.355 2112.93 141.667C2114.53 135.978 2115.33 131.089 2115.33 127C2115.33 122.733 2114.72 119.178 2113.47 116.333C2112.4 113.311 2110.8 111.089 2108.67 109.667C2106.72 108.067 2104.4 107.267 2101.73 107.267C2095.7 107.267 2089.2 110.822 2082.27 117.933C2075.52 125.044 2069.03 134.911 2062.8 147.533L2054.53 164.067C2045.83 181.488 2041.47 195 2041.47 204.6C2041.47 214.378 2045.12 219.267 2052.4 219.267ZM1989.2 263.8C1989.2 268.245 1991.33 271.712 1995.6 274.2C1999.87 276.867 2005.83 278.2 2013.47 278.2H2015.07C2026.1 278.2 2035.6 275.8 2043.6 271C2051.6 266.378 2059.33 258.555 2066.8 247.533H2019.33C2009.73 247.533 2002.37 248.955 1997.2 251.8C1991.87 254.645 1989.2 258.645 1989.2 263.8ZM2198.03 95V89.1333L2208.7 88.0667C2215.45 87.3555 2219.98 86.3778 2222.3 85.1333C2224.78 83.7112 2226.02 81.5778 2226.02 78.7333V22.4667C2226.02 16.9555 2223.27 15.6222 2217.77 18.4667L2196.7 30.2V22.2L2235.63 0.599976H2244.43V78.7333C2244.43 81.7555 2245.5 83.8888 2247.63 85.1333C2249.77 86.3778 2254.2 87.3555 2260.97 88.0667L2270.83 89.1333V95H2198.03ZM2272.18 92.0667C2290.13 88.6888 2302.58 84.9555 2309.52 80.8667C2316.62 76.7778 2320.18 71.5333 2320.18 65.1333V62.2C2320.18 53.3112 2315.02 48.8667 2304.72 48.8667C2299.55 48.8667 2293.87 50.6445 2287.65 54.2V47L2325.25 16.8667V15.5333H2291.38C2287.28 15.5333 2284.27 16.4222 2282.32 18.2C2280.35 19.8 2278.05 23.0888 2275.38 28.0667H2270.05L2276.18 2.73333H2337.78V15.2667L2303.65 42.4667V44.3333C2308.98 43.4445 2312.27 43 2313.52 43C2320.45 43 2326.4 44.6888 2331.38 48.0667C2336.53 51.4445 2339.12 56.2445 2339.12 62.4667C2339.12 71.1778 2333.6 78.3778 2322.58 84.0667C2311.73 89.7555 2294.93 94.5555 2272.18 98.4667V92.0667Z" fill="white"/>
</svg>