<svg width="907" height="301" viewBox="0 0 907 301" fill="none" xmlns="http://www.w3.org/2000/svg">
<path d="M0.801758 295.823V286.574L13.9058 284.646C24.4404 283.105 31.2493 280.407 34.3326 276.553C37.4159 272.443 38.9575 266.018 38.9575 257.282V44.9204C38.9575 35.6705 37.4159 29.247 34.3326 25.6498C31.5061 21.7957 24.9541 19.2262 14.6766 17.9415L0.801758 16.0145V6.76457H129.144V16.0145L113.727 17.5561C99.5957 18.8408 90.3458 21.5388 85.9778 25.6498C81.6097 29.5039 79.4258 35.9273 79.4258 44.9204V254.97C79.4258 265.761 81.2243 273.47 84.8215 278.094C88.6756 282.463 95.7416 284.646 106.019 284.646H133.769C145.588 284.646 155.737 277.709 164.216 263.834C172.952 249.959 182.973 226.192 194.278 192.533H207.382L178.862 295.823H0.801758ZM224.371 295.823V286.574L237.475 284.646C248.009 283.105 254.818 280.407 257.901 276.553C260.985 272.443 262.527 266.018 262.527 257.282V44.9204C262.527 35.6705 260.985 29.247 257.901 25.6498C255.075 21.7957 248.523 19.2262 238.245 17.9415L224.371 16.0145V6.76457H352.713V16.0145L337.297 17.5561C323.166 18.8408 313.916 21.5388 309.547 25.6498C305.178 29.5039 302.995 35.9273 302.995 44.9204V254.97C302.995 265.761 304.793 273.47 308.391 278.094C312.245 282.463 319.312 284.646 329.588 284.646H357.338C369.156 284.646 379.306 277.709 387.785 263.834C396.521 249.959 406.541 226.192 417.848 192.533H430.952L402.431 295.823H224.371ZM542.366 300.448C516.929 300.448 497.787 290.042 484.94 269.23L476.075 298.907H465.283L456.034 190.221H467.981C475.434 220.54 484.684 244.435 495.731 261.907C507.037 279.121 521.81 287.73 540.053 287.73C555.726 287.73 567.803 281.819 576.282 270.001C585.017 257.924 589.386 243.793 589.386 227.606C589.386 214.502 585.788 201.012 578.595 187.137C571.657 173.006 563.949 160.929 555.47 150.909C546.991 140.631 539.153 128.94 531.96 115.836C525.022 102.475 521.554 89.885 521.554 78.0658C521.554 56.4827 529.006 38.2398 543.908 23.3373C559.068 8.4347 577.053 0.983398 597.865 0.983398C620.475 0.983398 637.948 9.20552 650.281 25.6498L658.375 2.91046H667.239L676.489 95.0239H664.927C653.62 40.5523 631.652 13.3166 599.021 13.3166C585.661 13.3166 575.382 17.9415 568.188 27.1914C561.251 36.1845 557.782 46.976 557.782 59.566C557.782 71.6423 561.251 84.2324 568.188 97.3364C575.382 110.44 583.22 122.003 591.699 132.023C600.434 142.044 608.271 153.863 615.209 167.481C622.402 181.099 626 194.203 626 206.793C626 231.46 618.163 253.3 602.49 272.313C587.074 291.069 567.032 300.448 542.366 300.448ZM733.175 299.678C718.785 299.678 706.838 291.328 697.332 274.626C688.082 257.924 683.457 237.498 683.457 213.345C683.457 184.311 689.75 157.332 702.342 132.409C718.785 99.7774 742.552 69.7153 773.643 42.2225C804.988 14.7298 831.455 0.983398 853.038 0.983398C868.196 0.983398 879.758 8.4347 887.725 23.3373L898.131 2.91046H906.225L904.298 96.5655H893.121C889.267 66.7603 884.127 45.4343 877.704 32.5872C871.279 19.7401 862.929 13.3166 852.653 13.3166C824.388 13.3166 796.383 41.9656 768.633 99.2634L734.717 170.179C719.3 201.783 711.592 228.12 711.592 249.189C711.592 259.98 713.646 268.715 717.758 275.397C722.125 281.819 728.165 285.032 735.873 285.032C750.518 285.032 766.576 275.267 784.049 255.741C801.519 235.956 815.653 214.116 826.445 190.221L832.611 176.346C836.207 169.665 837.107 164.398 835.309 160.544C833.767 156.433 828.628 154.377 819.893 154.377H797.924L804.091 142.044H880.402L883.1 145.127L811.414 298.907H802.164L807.945 248.418H804.091C777.883 282.59 754.243 299.678 733.175 299.678Z" fill="#5C8CC2"/>
</svg>
