<svg width="17" height="17" viewBox="0 0 17 17" fill="none" xmlns="http://www.w3.org/2000/svg">
<g id="react-icons">
<path id="Vector" d="M8.75 15.5001C6.82718 15.5001 4.98311 14.7362 3.62348 13.3766C2.26384 12.017 1.5 10.1729 1.5 8.25008C1.5 5.31258 3.1875 2.67883 5.80031 1.54164C5.8924 1.50151 5.99444 1.49004 6.09313 1.50874C6.19183 1.52743 6.2826 1.57542 6.35363 1.64645C6.42466 1.71748 6.47265 1.80825 6.49134 1.90695C6.51004 2.00564 6.49857 2.10768 6.45844 2.19977C6.15844 2.88852 6 3.7707 6 4.75008C6 8.19633 8.80375 11.0001 12.25 11.0001C13.2294 11.0001 14.1116 10.8416 14.8003 10.5416C14.8924 10.5015 14.9944 10.49 15.0931 10.5087C15.1918 10.5274 15.2826 10.5754 15.3536 10.6464C15.4247 10.7175 15.4726 10.8083 15.4913 10.9069C15.51 11.0056 15.4986 11.1077 15.4584 11.1998C14.3213 13.8126 11.6875 15.5001 8.75 15.5001Z" fill="#288DFF"/>
</g>
</svg>
