<svg xmlns="http://www.w3.org/2000/svg" width="128" height="72" viewBox="0 0 128 72" fill="none">
  <path d="M72 32.0875C72 27.3148 66.0269 22.7917 56.8691 19.9868C58.9825 10.6469 58.0432 3.2161 53.9046 0.837066C52.9507 0.279022 51.8353 0.0146851 50.6172 0.0146851V3.28952C51.2923 3.28952 51.8353 3.42169 52.2903 3.67134C54.2862 4.8168 55.1521 9.17836 54.477 14.7882C54.3155 16.1686 54.0514 17.6224 53.7285 19.1057C50.852 18.4008 47.7114 17.8574 44.4093 17.505C42.428 14.7882 40.3734 12.321 38.3041 10.1623C43.0885 5.71261 47.5793 3.27484 50.6319 3.27484V0C46.596 0 41.3127 2.87833 35.9706 7.87136C30.6286 2.9077 25.3453 0.0587417 21.3094 0.0587417V3.33358C24.3473 3.33358 28.8528 5.75667 33.6372 10.177C31.5826 12.3357 29.5279 14.7882 27.576 17.505C24.2593 17.8574 21.1186 18.4008 18.2422 19.1204C17.9046 17.6518 17.6551 16.2273 17.479 14.8616C16.7892 9.25178 17.6404 4.89023 19.6217 3.73008C20.062 3.46575 20.6343 3.34827 21.3094 3.34827V0.0734269C20.0766 0.0734269 18.9613 0.337763 17.9927 0.895808C13.8687 3.27484 12.9441 10.691 15.0722 20.0015C5.94374 22.8211 0 27.3295 0 32.0875C0 36.8603 5.97309 41.3834 15.1309 44.1883C13.0175 53.5282 13.9568 60.959 18.0954 63.338C19.0493 63.8961 20.1647 64.1604 21.3975 64.1604C25.4333 64.1604 30.7167 61.2821 36.0587 56.289C41.4007 61.2527 46.6841 64.1017 50.7199 64.1017C51.9527 64.1017 53.0681 63.8373 54.0367 63.2793C58.1606 60.9002 59.0852 53.4841 56.9572 44.1736C66.0563 41.3687 72 36.8456 72 32.0875ZM52.892 22.2924C52.349 24.1868 51.6739 26.14 50.9107 28.0931C50.309 26.9183 49.6779 25.7435 48.9882 24.5686C48.3131 23.3938 47.594 22.2483 46.8749 21.1323C48.9588 21.4406 50.9694 21.8225 52.892 22.2924ZM46.1704 37.9323C45.0257 39.9148 43.8516 41.7946 42.6335 43.5421C40.4468 43.733 38.2307 43.8358 36 43.8358C33.7839 43.8358 31.5679 43.733 29.3958 43.5568C28.1777 41.8093 26.989 39.9442 25.8443 37.9764C24.7289 36.0526 23.7163 34.0994 22.7917 32.1316C23.7016 30.1638 24.7289 28.1959 25.8296 26.2721C26.9743 24.2896 28.1484 22.4099 29.3665 20.6623C31.5532 20.4714 33.7693 20.3686 36 20.3686C38.2161 20.3686 40.4321 20.4714 42.6042 20.6476C43.8223 22.3952 45.011 24.2602 46.1557 26.2281C47.2711 28.1519 48.2837 30.105 49.2083 32.0729C48.2837 34.0407 47.2711 36.0085 46.1704 37.9323ZM50.9107 36.0232C51.7032 37.9911 52.3783 39.9589 52.936 41.868C51.0135 42.3379 48.9882 42.7344 46.8895 43.0428C47.6086 41.9121 48.3278 40.7519 49.0029 39.5624C49.678 38.3876 50.309 37.198 50.9107 36.0232ZM36.0294 51.6925C34.6645 50.2827 33.2996 48.7114 31.9495 46.9932C33.2703 47.0519 34.6205 47.096 35.9853 47.096C37.3649 47.096 38.7297 47.0666 40.0652 46.9932C38.7444 48.7114 37.3795 50.2827 36.0294 51.6925ZM25.1105 43.0428C23.0265 42.7344 21.0159 42.3526 19.0934 41.8827C19.6364 39.9883 20.3115 38.0351 21.0746 36.082C21.6763 37.2568 22.3074 38.4316 22.9971 39.6065C23.6869 40.7813 24.3914 41.9267 25.1105 43.0428ZM35.956 12.4826C37.3208 13.8924 38.6857 15.4637 40.0359 17.1819C38.715 17.1231 37.3649 17.0791 36 17.0791C34.6205 17.0791 33.2556 17.1085 31.9201 17.1819C33.2409 15.4637 34.6058 13.8924 35.956 12.4826ZM25.0958 21.1323C24.3767 22.263 23.6576 23.4232 22.9825 24.6127C22.3074 25.7875 21.6763 26.9623 21.0746 28.1372C20.2821 26.1693 19.607 24.2015 19.0493 22.2924C20.9719 21.8372 22.9972 21.4406 25.0958 21.1323ZM11.8141 39.5183C6.61884 37.3008 3.25805 34.3931 3.25805 32.0875C3.25805 29.7819 6.61884 26.8595 11.8141 24.6567C13.0762 24.1134 14.4558 23.6288 15.8793 23.1735C16.7159 26.0519 17.8166 29.0477 19.1814 32.1169C17.8312 35.1715 16.7452 38.1526 15.9234 41.0162C14.4704 40.561 13.0909 40.0617 11.8141 39.5183ZM19.7097 60.5037C17.7138 59.3583 16.8479 54.9967 17.523 49.3869C17.6845 48.0065 17.9486 46.5526 18.2715 45.0694C21.148 45.7743 24.2886 46.3177 27.5907 46.6701C29.572 49.3869 31.6266 51.854 33.6959 54.0128C28.9115 58.4625 24.4207 60.9002 21.3681 60.9002C20.7077 60.8856 20.15 60.7534 19.7097 60.5037ZM54.521 49.3135C55.2108 54.9233 54.3596 59.2849 52.3783 60.445C51.938 60.7093 51.3657 60.8268 50.6906 60.8268C47.6527 60.8268 43.1472 58.4037 38.3628 53.9834C40.4175 51.8247 42.4721 49.3722 44.424 46.6554C47.7407 46.303 50.8814 45.7596 53.7578 45.04C54.0954 46.5233 54.3596 47.9477 54.521 49.3135ZM60.1712 39.5183C58.9091 40.0617 57.5296 40.5463 56.106 41.0016C55.2695 38.1232 54.1688 35.1274 52.8039 32.0582C54.1541 29.0036 55.2401 26.0225 56.062 23.1588C57.5149 23.6141 58.8944 24.1134 60.1859 24.6567C65.3812 26.8742 68.7419 29.7819 68.7419 32.0875C68.7273 34.3931 65.3665 37.3155 60.1712 39.5183Z" fill="#61DAFB"/>
  <path d="M35.9855 38.7988C39.6896 38.7988 42.6923 35.7941 42.6923 32.0876C42.6923 28.3811 39.6896 25.3764 35.9855 25.3764C32.2813 25.3764 29.2786 28.3811 29.2786 32.0876C29.2786 35.7941 32.2813 38.7988 35.9855 38.7988Z" fill="#61DAFB"/>
</svg>