<svg width="16" height="16" viewBox="0 0 16 16" fill="none" xmlns="http://www.w3.org/2000/svg">
<path fill-rule="evenodd" clip-rule="evenodd" d="M8 1C8.27614 1 8.5 1.22386 8.5 1.5V3C8.5 3.27614 8.27614 3.5 8 3.5C7.72386 3.5 7.5 3.27614 7.5 3V1.5C7.5 1.22386 7.72386 1 8 1ZM3.0502 3.0502C3.24546 2.85493 3.56204 2.85493 3.7573 3.0502L4.81793 4.11082C5.01319 4.30608 5.01319 4.62267 4.81793 4.81793C4.62267 5.01319 4.30608 5.01319 4.11082 4.81793L3.0502 3.7573C2.85493 3.56204 2.85493 3.24546 3.0502 3.0502ZM12.9498 3.0502C13.1451 3.24546 13.1451 3.56204 12.9498 3.7573L11.8892 4.81793C11.6939 5.01319 11.3773 5.01319 11.1821 4.81793C10.9868 4.62267 10.9868 4.30608 11.1821 4.11082L12.2427 3.0502C12.438 2.85493 12.7545 2.85493 12.9498 3.0502ZM1 8C1 7.72386 1.22386 7.5 1.5 7.5H3C3.27614 7.5 3.5 7.72386 3.5 8C3.5 8.27614 3.27614 8.5 3 8.5H1.5C1.22386 8.5 1 8.27614 1 8ZM12.5 8C12.5 7.72386 12.7239 7.5 13 7.5H14.5C14.7761 7.5 15 7.72386 15 8C15 8.27614 14.7761 8.5 14.5 8.5H13C12.7239 8.5 12.5 8.27614 12.5 8ZM4.81793 11.1821C5.01319 11.3773 5.01319 11.6939 4.81793 11.8892L3.7573 12.9498C3.56204 13.1451 3.24546 13.1451 3.0502 12.9498C2.85493 12.7545 2.85493 12.438 3.0502 12.2427L4.11082 11.1821C4.30608 10.9868 4.62267 10.9868 4.81793 11.1821ZM11.1821 11.1821C11.3773 10.9868 11.6939 10.9868 11.8892 11.1821L12.9498 12.2427C13.1451 12.438 13.1451 12.7545 12.9498 12.9498C12.7545 13.1451 12.438 13.1451 12.2427 12.9498L11.1821 11.8892C10.9868 11.6939 10.9868 11.3773 11.1821 11.1821ZM8 12.5C8.27614 12.5 8.5 12.7239 8.5 13V14.5C8.5 14.7761 8.27614 15 8 15C7.72386 15 7.5 14.7761 7.5 14.5V13C7.5 12.7239 7.72386 12.5 8 12.5Z" fill="#288DFF"/>
<path fill-rule="evenodd" clip-rule="evenodd" d="M8 6C6.89543 6 6 6.89543 6 8C6 9.10457 6.89543 10 8 10C9.10457 10 10 9.10457 10 8C10 6.89543 9.10457 6 8 6ZM5 8C5 6.34315 6.34315 5 8 5C9.65685 5 11 6.34315 11 8C11 9.65685 9.65685 11 8 11C6.34315 11 5 9.65685 5 8Z" fill="#288DFF"/>
</svg>
